<svg width="1712" height="874" viewBox="0 0 1712 874" fill="none" xmlns="http://www.w3.org/2000/svg">
<g clip-path="url(#clip0_2083_808)">
<rect width="1712" height="873.044" rx="32" fill="#A5C8D8"/>
<g clip-path="url(#clip1_2083_808)">
<path d="M368.112 26.9333C382.441 22.2258 389.606 19.8721 396.005 20.7478C402.202 21.5958 407.937 24.4943 412.294 28.981C416.794 33.6142 419.148 40.7785 423.855 55.1072C428.563 69.4379 430.917 76.6033 430.041 83.0024C429.193 89.1997 426.295 94.9335 421.808 99.2916C417.175 103.792 410.009 106.146 395.677 110.854C381.349 115.561 374.185 117.915 367.786 117.039C361.589 116.191 355.854 113.293 351.496 108.806C346.996 104.173 344.643 97.0083 339.935 82.6793C335.227 68.3482 332.873 61.1827 333.75 54.7828C334.598 48.587 337.496 42.8535 341.981 38.4962C346.615 33.9954 353.781 31.6414 368.112 26.9333Z" fill="#748E99"/>
</g>
<rect x="245.678" y="62" width="720" height="751.412" rx="24" fill="#10242F"/>
<path d="M321.6 149.375C314.912 149.375 310.85 145 310.85 137.719C310.85 130.453 314.99 126.062 321.475 126.062C325.693 126.062 328.959 127.938 330.506 131.188C330.818 131.781 330.975 132.391 330.975 132.953C330.975 134.188 330.146 134.984 328.896 134.984C327.834 134.984 327.162 134.516 326.646 133.422C325.615 131.125 323.771 129.969 321.521 129.969C317.959 129.969 315.662 132.953 315.662 137.703C315.662 142.516 317.928 145.484 321.537 145.484C323.912 145.484 325.693 144.406 326.709 142.141C327.193 141.078 327.787 140.656 328.787 140.656C330.115 140.656 330.99 141.5 330.99 142.75C330.99 143.281 330.865 143.781 330.631 144.328C329.225 147.453 325.865 149.375 321.6 149.375ZM336.365 149.328C335.037 149.328 334.084 148.516 334.084 146.953V128.453C334.084 126.984 334.928 126.109 336.334 126.109C337.74 126.109 338.568 126.984 338.568 128.453V135.234H338.662C339.553 133.125 341.381 131.938 343.928 131.938C347.646 131.938 349.771 134.344 349.771 138.219V146.953C349.771 148.516 348.834 149.328 347.49 149.328C346.162 149.328 345.209 148.516 345.209 146.953V139.188C345.209 137.031 344.146 135.719 342.068 135.719C339.912 135.719 338.646 137.234 338.646 139.438V146.953C338.646 148.516 337.709 149.328 336.365 149.328ZM360.396 149.359C355.162 149.359 352.084 146.125 352.084 140.703C352.084 135.312 355.225 131.891 360.178 131.891C364.928 131.891 368.115 135.141 368.115 139.688C368.115 140.953 367.396 141.672 366.131 141.672H356.568V141.875C356.568 144.359 358.068 145.984 360.381 145.984C362.053 145.984 363.146 145.422 364.381 143.969C364.865 143.469 365.271 143.297 365.865 143.297C366.85 143.297 367.646 143.922 367.646 144.969C367.646 145.328 367.537 145.703 367.334 146.078C366.225 148.141 363.631 149.359 360.396 149.359ZM356.615 138.875H363.725C363.631 136.688 362.225 135.266 360.225 135.266C358.225 135.266 356.771 136.734 356.615 138.875ZM378.115 149.359C373.068 149.359 369.865 146.047 369.865 140.625C369.865 135.266 373.053 131.891 378.084 131.891C381.443 131.891 384.24 133.516 385.146 135.891C385.303 136.281 385.396 136.688 385.396 137.016C385.396 138.141 384.521 138.797 383.443 138.797C382.537 138.797 381.99 138.438 381.521 137.609C380.693 136.141 379.678 135.469 378.225 135.469C375.912 135.469 374.49 137.375 374.49 140.609C374.49 143.906 375.912 145.781 378.193 145.781C379.787 145.781 380.771 145 381.475 143.812C382.084 142.859 382.584 142.469 383.553 142.469C384.615 142.469 385.475 143.172 385.475 144.297C385.475 144.656 385.381 145.031 385.178 145.484C384.178 147.766 381.318 149.359 378.115 149.359ZM390.303 149.328C388.975 149.328 388.021 148.516 388.021 146.953V128.5C388.021 126.938 388.975 126.109 390.303 126.109C391.646 126.109 392.584 126.938 392.584 128.5V138.891H392.646L398.709 132.812C399.318 132.172 399.834 131.906 400.521 131.906C401.693 131.906 402.553 132.766 402.553 133.891C402.553 134.578 402.35 135 401.693 135.609L397.428 139.641L402.1 145.594C402.6 146.266 402.74 146.672 402.74 147.266C402.74 148.484 401.85 149.328 400.568 149.328C399.6 149.328 399.053 148.984 398.334 147.906L394.037 142.219L392.584 143.562V146.953C392.584 148.516 391.646 149.328 390.303 149.328ZM412.037 149.359C406.975 149.359 403.74 146.109 403.74 140.609C403.74 135.188 407.021 131.891 412.037 131.891C417.053 131.891 420.334 135.172 420.334 140.609C420.334 146.125 417.1 149.359 412.037 149.359ZM412.037 145.875C414.271 145.875 415.693 143.984 415.693 140.625C415.693 137.297 414.256 135.375 412.037 135.375C409.818 135.375 408.365 137.297 408.365 140.625C408.365 143.984 409.787 145.875 412.037 145.875ZM428.646 149.312C425.021 149.312 422.615 146.953 422.615 143.047V134.297C422.615 132.734 423.568 131.906 424.896 131.906C426.24 131.906 427.178 132.734 427.178 134.297V142.094C427.178 144.328 428.287 145.516 430.303 145.516C432.334 145.516 433.6 144.062 433.6 141.844V134.297C433.6 132.734 434.553 131.906 435.881 131.906C437.225 131.906 438.162 132.734 438.162 134.297V147.016C438.162 148.531 437.271 149.328 435.959 149.328C434.646 149.328 433.756 148.531 433.756 147.016V145.984H433.662C432.834 148.094 431.178 149.312 428.646 149.312ZM442.35 144.719V135.688H441.475C440.396 135.688 439.709 135.031 439.709 133.969C439.709 132.906 440.396 132.25 441.475 132.25H442.35V130.391C442.35 128.922 443.209 128.016 444.631 128.016C446.053 128.016 446.912 128.922 446.912 130.391V132.25H448.521C449.6 132.25 450.271 132.922 450.271 133.969C450.271 135.016 449.6 135.688 448.521 135.688H446.912V143.703C446.912 144.891 447.318 145.391 448.303 145.469L448.6 145.5C449.725 145.625 450.334 146.094 450.334 147.156C450.334 148.5 449.021 149.188 447.1 149.188H446.943C443.896 149.188 442.35 147.672 442.35 144.719Z" fill="white"/>
<rect x="310.428" y="185.75" width="591.102" height="88.9898" rx="19.25" fill="#10242F"/>
<rect x="310.428" y="185.75" width="591.102" height="88.9898" rx="19.25" stroke="#748E99" stroke-width="1.5"/>
<path d="M341.129 223.234C336.949 223.234 334.41 220.5 334.41 215.949C334.41 211.408 336.998 208.664 341.051 208.664C343.688 208.664 345.729 209.836 346.695 211.867C346.891 212.238 346.988 212.619 346.988 212.971C346.988 213.742 346.471 214.24 345.689 214.24C345.025 214.24 344.605 213.947 344.283 213.264C343.639 211.828 342.486 211.105 341.08 211.105C338.854 211.105 337.418 212.971 337.418 215.939C337.418 218.947 338.834 220.803 341.09 220.803C342.574 220.803 343.688 220.129 344.322 218.713C344.625 218.049 344.996 217.785 345.621 217.785C346.451 217.785 346.998 218.312 346.998 219.094C346.998 219.426 346.92 219.738 346.773 220.08C345.895 222.033 343.795 223.234 341.129 223.234ZM353.668 223.225C350.504 223.225 348.482 221.193 348.482 217.756C348.482 214.367 350.533 212.307 353.668 212.307C356.803 212.307 358.854 214.357 358.854 217.756C358.854 221.203 356.832 223.225 353.668 223.225ZM353.668 221.047C355.064 221.047 355.953 219.865 355.953 217.766C355.953 215.686 355.055 214.484 353.668 214.484C352.281 214.484 351.373 215.686 351.373 217.766C351.373 219.865 352.262 221.047 353.668 221.047ZM361.754 223.205C360.924 223.205 360.328 222.697 360.328 221.721V213.752C360.328 212.863 360.846 212.316 361.705 212.316C362.564 212.316 363.131 212.863 363.131 213.762V214.348H363.189C363.746 213.049 364.801 212.336 366.412 212.336C368.736 212.336 370.045 213.801 370.045 216.252V221.721C370.045 222.697 369.449 223.205 368.619 223.205C367.779 223.205 367.193 222.697 367.193 221.721V216.848C367.193 215.48 366.549 214.699 365.27 214.699C363.99 214.699 363.18 215.637 363.18 216.994V221.721C363.18 222.697 362.594 223.205 361.754 223.205ZM372.613 220.324V214.68H372.066C371.393 214.68 370.963 214.27 370.963 213.605C370.963 212.941 371.393 212.531 372.066 212.531H372.613V211.369C372.613 210.451 373.15 209.885 374.039 209.885C374.928 209.885 375.465 210.451 375.465 211.369V212.531H376.471C377.145 212.531 377.564 212.951 377.564 213.605C377.564 214.26 377.145 214.68 376.471 214.68H375.465V219.689C375.465 220.432 375.719 220.744 376.334 220.793L376.52 220.812C377.223 220.891 377.604 221.184 377.604 221.848C377.604 222.688 376.783 223.117 375.582 223.117H375.484C373.58 223.117 372.613 222.17 372.613 220.324ZM381.959 223.166C379.967 223.166 378.453 221.877 378.453 219.992C378.453 218.088 379.918 216.984 382.535 216.828L385.172 216.672V215.979C385.172 215.002 384.488 214.436 383.414 214.436C382.545 214.436 382.018 214.719 381.383 215.539C381.07 215.891 380.709 216.066 380.25 216.066C379.557 216.066 379.059 215.617 379.059 214.973C379.059 214.748 379.107 214.543 379.205 214.328C379.693 213.078 381.373 212.307 383.541 212.307C386.227 212.307 387.975 213.693 387.975 215.803V221.77C387.975 222.717 387.398 223.205 386.588 223.205C385.816 223.205 385.279 222.775 385.221 221.936V221.398H385.162C384.576 222.512 383.268 223.166 381.959 223.166ZM382.896 221.105C384.146 221.105 385.172 220.295 385.172 219.162V218.4L382.965 218.537C381.9 218.615 381.295 219.094 381.295 219.836C381.295 220.617 381.939 221.105 382.896 221.105ZM394.596 223.225C391.441 223.225 389.439 221.154 389.439 217.766C389.439 214.416 391.432 212.307 394.576 212.307C396.676 212.307 398.424 213.322 398.99 214.807C399.088 215.051 399.146 215.305 399.146 215.51C399.146 216.213 398.6 216.623 397.926 216.623C397.359 216.623 397.018 216.398 396.725 215.881C396.207 214.963 395.572 214.543 394.664 214.543C393.219 214.543 392.33 215.734 392.33 217.756C392.33 219.816 393.219 220.988 394.645 220.988C395.641 220.988 396.256 220.5 396.695 219.758C397.076 219.162 397.389 218.918 397.994 218.918C398.658 218.918 399.195 219.357 399.195 220.061C399.195 220.285 399.137 220.52 399.01 220.803C398.385 222.229 396.598 223.225 394.596 223.225ZM401.48 220.324V214.68H400.934C400.26 214.68 399.83 214.27 399.83 213.605C399.83 212.941 400.26 212.531 400.934 212.531H401.48V211.369C401.48 210.451 402.018 209.885 402.906 209.885C403.795 209.885 404.332 210.451 404.332 211.369V212.531H405.338C406.012 212.531 406.432 212.951 406.432 213.605C406.432 214.26 406.012 214.68 405.338 214.68H404.332V219.689C404.332 220.432 404.586 220.744 405.201 220.793L405.387 220.812C406.09 220.891 406.471 221.184 406.471 221.848C406.471 222.688 405.65 223.117 404.449 223.117H404.352C402.447 223.117 401.48 222.17 401.48 220.324ZM413.268 211.232C412.408 211.232 411.744 210.578 411.744 209.758C411.744 208.928 412.408 208.283 413.268 208.283C414.127 208.283 414.791 208.928 414.791 209.758C414.791 210.578 414.127 211.232 413.268 211.232ZM413.268 223.205C412.379 223.205 411.842 222.648 411.842 221.721V213.811C411.842 212.883 412.379 212.316 413.268 212.316C414.146 212.316 414.693 212.883 414.693 213.811V221.721C414.693 222.648 414.146 223.205 413.268 223.205ZM418.023 223.205C417.193 223.205 416.598 222.697 416.598 221.721V213.752C416.598 212.863 417.115 212.316 417.975 212.316C418.834 212.316 419.4 212.863 419.4 213.762V214.348H419.459C420.016 213.049 421.07 212.336 422.682 212.336C425.006 212.336 426.314 213.801 426.314 216.252V221.721C426.314 222.697 425.719 223.205 424.889 223.205C424.049 223.205 423.463 222.697 423.463 221.721V216.848C423.463 215.48 422.818 214.699 421.539 214.699C420.26 214.699 419.449 215.637 419.449 216.994V221.721C419.449 222.697 418.863 223.205 418.023 223.205ZM430.309 223.205C429.459 223.205 428.883 222.707 428.883 221.721V214.68H428.336C427.74 214.68 427.291 214.299 427.291 213.625C427.291 212.961 427.74 212.58 428.336 212.58H428.883V211.789C428.883 209.719 429.898 208.801 431.871 208.781C433.385 208.781 434.02 209.26 434.02 209.934C434.02 210.334 433.824 210.568 433.443 210.686C433.287 210.725 433.111 210.754 432.896 210.764C432.018 210.793 431.666 211.145 431.666 211.916V212.58H432.867C433.463 212.58 433.912 212.961 433.912 213.625C433.912 214.299 433.463 214.68 432.867 214.68H431.734V221.721C431.734 222.707 431.148 223.205 430.309 223.205ZM439.762 223.225C436.598 223.225 434.576 221.193 434.576 217.756C434.576 214.367 436.627 212.307 439.762 212.307C442.896 212.307 444.947 214.357 444.947 217.756C444.947 221.203 442.926 223.225 439.762 223.225ZM439.762 221.047C441.158 221.047 442.047 219.865 442.047 217.766C442.047 215.686 441.148 214.484 439.762 214.484C438.375 214.484 437.467 215.686 437.467 217.766C437.467 219.865 438.355 221.047 439.762 221.047Z" fill="#A5C8D8"/>
<rect opacity="0.4" x="333.678" y="239.49" width="211" height="12" rx="6" fill="#748E99"/>
<rect x="310.428" y="300.24" width="591.102" height="88.9898" rx="19.25" fill="#10242F"/>
<rect x="310.428" y="300.24" width="591.102" height="88.9898" rx="19.25" stroke="#748E99" stroke-width="1.5"/>
<path d="M336.324 337.49C335.396 337.49 334.85 336.923 334.85 335.947V324.931C334.85 323.964 335.396 323.398 336.324 323.398H340.982C343.629 323.398 345.289 324.755 345.289 326.914C345.289 328.457 344.137 329.746 342.643 329.97V330.048C344.557 330.195 345.963 331.591 345.963 333.457C345.963 335.937 344.098 337.49 341.09 337.49H336.324ZM337.799 329.257H339.918C341.49 329.257 342.389 328.564 342.389 327.373C342.389 326.24 341.598 325.595 340.221 325.595H337.799V329.257ZM337.799 335.292H340.338C342.037 335.292 342.955 334.57 342.955 333.222C342.955 331.904 342.008 331.201 340.27 331.201H337.799V335.292ZM348.873 325.722C348.014 325.722 347.35 325.068 347.35 324.248C347.35 323.417 348.014 322.773 348.873 322.773C349.732 322.773 350.396 323.417 350.396 324.248C350.396 325.068 349.732 325.722 348.873 325.722ZM348.873 337.695C347.984 337.695 347.447 337.138 347.447 336.21V328.3C347.447 327.373 347.984 326.806 348.873 326.806C349.752 326.806 350.299 327.373 350.299 328.3V336.21C350.299 337.138 349.752 337.695 348.873 337.695ZM353.697 337.695C352.867 337.695 352.271 337.187 352.271 336.21V324.677C352.271 323.701 352.867 323.183 353.697 323.183C354.537 323.183 355.123 323.701 355.123 324.677V336.21C355.123 337.187 354.537 337.695 353.697 337.695ZM358.541 337.695C357.711 337.695 357.115 337.187 357.115 336.21V324.677C357.115 323.701 357.711 323.183 358.541 323.183C359.381 323.183 359.967 323.701 359.967 324.677V336.21C359.967 337.187 359.381 337.695 358.541 337.695ZM363.365 325.722C362.506 325.722 361.842 325.068 361.842 324.248C361.842 323.417 362.506 322.773 363.365 322.773C364.225 322.773 364.889 323.417 364.889 324.248C364.889 325.068 364.225 325.722 363.365 325.722ZM363.365 337.695C362.477 337.695 361.939 337.138 361.939 336.21V328.3C361.939 327.373 362.477 326.806 363.365 326.806C364.244 326.806 364.791 327.373 364.791 328.3V336.21C364.791 337.138 364.244 337.695 363.365 337.695ZM368.121 337.695C367.291 337.695 366.695 337.187 366.695 336.21V328.242C366.695 327.353 367.213 326.806 368.072 326.806C368.932 326.806 369.498 327.353 369.498 328.251V328.837H369.557C370.113 327.539 371.168 326.826 372.779 326.826C375.104 326.826 376.412 328.291 376.412 330.742V336.21C376.412 337.187 375.816 337.695 374.986 337.695C374.146 337.695 373.561 337.187 373.561 336.21V331.337C373.561 329.97 372.916 329.189 371.637 329.189C370.357 329.189 369.547 330.126 369.547 331.484V336.21C369.547 337.187 368.961 337.695 368.121 337.695ZM382.896 341.425C380.758 341.416 379.166 340.605 378.492 339.501C378.336 339.238 378.277 338.974 378.277 338.71C378.277 338.115 378.727 337.666 379.439 337.666C379.811 337.666 380.104 337.783 380.426 338.076C381.197 338.808 381.939 339.208 382.887 339.218C384.449 339.228 385.367 338.369 385.367 337.06V335.39H385.309C384.82 336.513 383.6 337.265 382.086 337.265C379.479 337.265 377.838 335.273 377.838 332.08C377.838 328.798 379.439 326.855 382.135 326.855C383.639 326.855 384.781 327.646 385.328 328.828H385.387V328.251C385.387 327.285 386.002 326.806 386.822 326.806C387.643 326.806 388.238 327.285 388.238 328.251V337.08C388.238 339.804 386.266 341.445 382.896 341.425ZM383.053 335.146C384.479 335.146 385.396 334.013 385.396 332.119C385.396 330.234 384.479 329.023 383.053 329.023C381.646 329.023 380.758 330.214 380.758 332.109C380.758 334.023 381.637 335.146 383.053 335.146ZM397.945 337.656C395.328 337.656 393.678 335.585 393.678 332.236C393.678 328.916 395.338 326.855 397.965 326.855C399.479 326.855 400.65 327.656 401.158 328.818H401.217V324.677C401.217 323.701 401.812 323.183 402.643 323.183C403.482 323.183 404.068 323.701 404.068 324.677V336.25C404.068 337.197 403.482 337.695 402.652 337.695C401.832 337.695 401.217 337.207 401.217 336.25V335.644H401.168C400.709 336.816 399.557 337.656 397.945 337.656ZM398.912 335.361C400.328 335.361 401.236 334.169 401.236 332.255C401.236 330.351 400.328 329.14 398.912 329.14C397.477 329.14 396.598 330.341 396.598 332.255C396.598 334.179 397.477 335.361 398.912 335.361ZM410.787 337.714C407.516 337.714 405.592 335.693 405.592 332.304C405.592 328.935 407.555 326.796 410.65 326.796C413.619 326.796 415.611 328.828 415.611 331.669C415.611 332.46 415.162 332.91 414.371 332.91H408.395V333.037C408.395 334.589 409.332 335.605 410.777 335.605C411.822 335.605 412.506 335.253 413.277 334.345C413.58 334.033 413.834 333.925 414.205 333.925C414.82 333.925 415.318 334.316 415.318 334.97C415.318 335.195 415.25 335.429 415.123 335.664C414.43 336.953 412.809 337.714 410.787 337.714ZM408.424 331.162H412.867C412.809 329.794 411.93 328.906 410.68 328.906C409.43 328.906 408.521 329.824 408.424 331.162ZM417.848 334.814V329.169H417.301C416.627 329.169 416.197 328.759 416.197 328.095C416.197 327.431 416.627 327.021 417.301 327.021H417.848V325.859C417.848 324.941 418.385 324.375 419.273 324.375C420.162 324.375 420.699 324.941 420.699 325.859V327.021H421.705C422.379 327.021 422.799 327.441 422.799 328.095C422.799 328.75 422.379 329.169 421.705 329.169H420.699V334.179C420.699 334.921 420.953 335.234 421.568 335.283L421.754 335.302C422.457 335.38 422.838 335.673 422.838 336.337C422.838 337.177 422.018 337.607 420.816 337.607H420.719C418.814 337.607 417.848 336.66 417.848 334.814ZM427.193 337.656C425.201 337.656 423.688 336.367 423.688 334.482C423.688 332.578 425.152 331.474 427.77 331.318L430.406 331.162V330.468C430.406 329.492 429.723 328.925 428.648 328.925C427.779 328.925 427.252 329.208 426.617 330.029C426.305 330.38 425.943 330.556 425.484 330.556C424.791 330.556 424.293 330.107 424.293 329.462C424.293 329.238 424.342 329.033 424.439 328.818C424.928 327.568 426.607 326.796 428.775 326.796C431.461 326.796 433.209 328.183 433.209 330.292V336.259C433.209 337.207 432.633 337.695 431.822 337.695C431.051 337.695 430.514 337.265 430.455 336.425V335.888H430.396C429.811 337.001 428.502 337.656 427.193 337.656ZM428.131 335.595C429.381 335.595 430.406 334.785 430.406 333.652V332.89L428.199 333.027C427.135 333.105 426.529 333.583 426.529 334.326C426.529 335.107 427.174 335.595 428.131 335.595ZM436.529 325.722C435.67 325.722 435.006 325.068 435.006 324.248C435.006 323.417 435.67 322.773 436.529 322.773C437.389 322.773 438.053 323.417 438.053 324.248C438.053 325.068 437.389 325.722 436.529 325.722ZM436.529 337.695C435.641 337.695 435.104 337.138 435.104 336.21V328.3C435.104 327.373 435.641 326.806 436.529 326.806C437.408 326.806 437.955 327.373 437.955 328.3V336.21C437.955 337.138 437.408 337.695 436.529 337.695ZM441.354 337.695C440.523 337.695 439.928 337.187 439.928 336.21V324.677C439.928 323.701 440.523 323.183 441.354 323.183C442.193 323.183 442.779 323.701 442.779 324.677V336.21C442.779 337.187 442.193 337.695 441.354 337.695ZM448.971 337.714C446.568 337.714 444.967 336.855 444.469 335.625C444.4 335.439 444.361 335.253 444.361 335.097C444.361 334.443 444.85 334.003 445.514 334.003C445.973 334.003 446.363 334.208 446.754 334.648C447.311 335.38 447.955 335.712 449.039 335.712C450.074 335.712 450.748 335.283 450.748 334.589C450.748 334.023 450.387 333.72 449.361 333.496L447.604 333.125C445.553 332.685 444.518 331.64 444.518 330.087C444.518 328.085 446.246 326.796 448.961 326.796C451.129 326.796 452.721 327.783 453.062 328.964C453.102 329.111 453.131 329.248 453.131 329.384C453.131 329.96 452.77 330.361 452.037 330.361C451.666 330.361 451.256 330.224 451.002 329.921C450.504 329.287 449.938 328.798 448.912 328.798C447.945 328.798 447.271 329.257 447.271 329.931C447.271 330.478 447.682 330.839 448.727 331.064L450.455 331.435C452.682 331.904 453.6 332.724 453.6 334.287C453.6 336.367 451.734 337.714 448.971 337.714Z" fill="#A5C8D8"/>
<rect opacity="0.4" x="333.678" y="353.979" width="152" height="12" rx="6" fill="#748E99"/>
<rect x="310.428" y="414.729" width="591.102" height="256.75" rx="19.25" fill="#10242F"/>
<rect x="310.428" y="414.729" width="591.102" height="256.75" rx="19.25" stroke="#748E99" stroke-width="1.5"/>
<path d="M337.059 452.9C336.131 452.9 335.584 452.333 335.584 451.367V440.156C335.584 439.189 336.131 438.623 337.059 438.623H341.316C344.207 438.623 346.199 440.546 346.199 443.447C346.199 446.337 344.139 448.271 341.17 448.271H338.533V451.367C338.533 452.333 337.986 452.9 337.059 452.9ZM338.533 445.966H340.525C342.215 445.966 343.201 445.068 343.201 443.457C343.201 441.855 342.225 440.957 340.535 440.957H338.533V445.966ZM350.115 452.88C348.123 452.88 346.609 451.591 346.609 449.707C346.609 447.802 348.074 446.699 350.691 446.542L353.328 446.386V445.693C353.328 444.716 352.645 444.15 351.57 444.15C350.701 444.15 350.174 444.433 349.539 445.253C349.227 445.605 348.865 445.781 348.406 445.781C347.713 445.781 347.215 445.332 347.215 444.687C347.215 444.462 347.264 444.257 347.361 444.042C347.85 442.792 349.529 442.021 351.697 442.021C354.383 442.021 356.131 443.408 356.131 445.517V451.484C356.131 452.431 355.555 452.919 354.744 452.919C353.973 452.919 353.436 452.49 353.377 451.65V451.113H353.318C352.732 452.226 351.424 452.88 350.115 452.88ZM351.053 450.82C352.303 450.82 353.328 450.009 353.328 448.876V448.115L351.121 448.251C350.057 448.33 349.451 448.808 349.451 449.55C349.451 450.332 350.096 450.82 351.053 450.82ZM359.695 456.591C358.445 456.591 357.771 456.113 357.771 455.253C357.771 454.677 358.172 454.316 358.816 454.316C359.012 454.316 359.119 454.326 359.314 454.326C359.812 454.326 360.35 454.111 360.691 453.378L360.838 453.007L357.498 444.199C357.391 443.906 357.332 443.593 357.332 443.359C357.332 442.587 357.967 442.031 358.807 442.031C359.559 442.031 359.949 442.353 360.184 443.183L362.459 450.429H362.508L364.783 443.164C365.018 442.373 365.428 442.031 366.16 442.031C366.98 442.031 367.547 442.568 367.547 443.32C367.547 443.554 367.488 443.886 367.391 444.16L364.178 452.89C363.201 455.595 361.99 456.591 359.695 456.591ZM370.203 452.919C369.354 452.919 368.777 452.402 368.777 451.435V443.486C368.777 442.529 369.344 442.031 370.154 442.031C370.965 442.031 371.531 442.529 371.531 443.486V444.14H371.59C372.029 442.88 373.152 442.05 374.578 442.05C376.092 442.05 377.146 442.832 377.498 444.199H377.557C378.025 442.88 379.275 442.05 380.809 442.05C382.859 442.05 384.236 443.457 384.236 445.566V451.435C384.236 452.402 383.65 452.919 382.801 452.919C381.961 452.919 381.385 452.402 381.385 451.435V446.279C381.385 445.068 380.779 444.404 379.676 444.404C378.592 444.404 377.879 445.195 377.879 446.357V451.435C377.879 452.402 377.352 452.919 376.502 452.919C375.662 452.919 375.135 452.402 375.135 451.435V446.191C375.135 445.068 374.5 444.404 373.445 444.404C372.361 444.404 371.629 445.224 371.629 446.396V451.435C371.629 452.402 371.043 452.919 370.203 452.919ZM390.857 452.939C387.586 452.939 385.662 450.917 385.662 447.529C385.662 444.16 387.625 442.021 390.721 442.021C393.689 442.021 395.682 444.052 395.682 446.894C395.682 447.685 395.232 448.134 394.441 448.134H388.465V448.261C388.465 449.814 389.402 450.83 390.848 450.83C391.893 450.83 392.576 450.478 393.348 449.57C393.65 449.257 393.904 449.15 394.275 449.15C394.891 449.15 395.389 449.541 395.389 450.195C395.389 450.419 395.32 450.654 395.193 450.888C394.5 452.177 392.879 452.939 390.857 452.939ZM388.494 446.386H392.938C392.879 445.019 392 444.13 390.75 444.13C389.5 444.13 388.592 445.048 388.494 446.386ZM398.582 452.919C397.752 452.919 397.156 452.412 397.156 451.435V443.466C397.156 442.578 397.674 442.031 398.533 442.031C399.393 442.031 399.959 442.578 399.959 443.476V444.062H400.018C400.574 442.763 401.629 442.05 403.24 442.05C405.564 442.05 406.873 443.515 406.873 445.966V451.435C406.873 452.412 406.277 452.919 405.447 452.919C404.607 452.919 404.021 452.412 404.021 451.435V446.562C404.021 445.195 403.377 444.414 402.098 444.414C400.818 444.414 400.008 445.351 400.008 446.708V451.435C400.008 452.412 399.422 452.919 398.582 452.919ZM409.441 450.039V444.394H408.895C408.221 444.394 407.791 443.984 407.791 443.32C407.791 442.656 408.221 442.246 408.895 442.246H409.441V441.083C409.441 440.166 409.979 439.599 410.867 439.599C411.756 439.599 412.293 440.166 412.293 441.083V442.246H413.299C413.973 442.246 414.393 442.666 414.393 443.32C414.393 443.974 413.973 444.394 413.299 444.394H412.293V449.404C412.293 450.146 412.547 450.458 413.162 450.507L413.348 450.527C414.051 450.605 414.432 450.898 414.432 451.562C414.432 452.402 413.611 452.832 412.41 452.832H412.312C410.408 452.832 409.441 451.884 409.441 450.039Z" fill="#A5C8D8"/>
<path d="M340.373 492.754C337.029 492.754 334.998 490.567 334.998 486.926C334.998 483.293 337.068 481.098 340.311 481.098C342.42 481.098 344.053 482.036 344.826 483.661C344.982 483.958 345.061 484.262 345.061 484.543C345.061 485.161 344.646 485.559 344.021 485.559C343.49 485.559 343.154 485.325 342.896 484.778C342.381 483.629 341.459 483.051 340.334 483.051C338.553 483.051 337.404 484.543 337.404 486.918C337.404 489.325 338.537 490.809 340.342 490.809C341.529 490.809 342.42 490.27 342.928 489.137C343.17 488.606 343.467 488.395 343.967 488.395C344.631 488.395 345.068 488.817 345.068 489.442C345.068 489.708 345.006 489.958 344.889 490.231C344.186 491.793 342.506 492.754 340.373 492.754ZM348.99 492.7C347.396 492.7 346.186 491.668 346.186 490.161C346.186 488.637 347.357 487.754 349.451 487.629L351.561 487.504V486.95C351.561 486.168 351.014 485.715 350.154 485.715C349.459 485.715 349.037 485.942 348.529 486.598C348.279 486.879 347.99 487.02 347.623 487.02C347.068 487.02 346.67 486.661 346.67 486.145C346.67 485.965 346.709 485.801 346.787 485.629C347.178 484.629 348.521 484.012 350.256 484.012C352.404 484.012 353.803 485.122 353.803 486.809V491.583C353.803 492.34 353.342 492.731 352.693 492.731C352.076 492.731 351.646 492.387 351.6 491.715V491.286H351.553C351.084 492.176 350.037 492.7 348.99 492.7ZM349.74 491.051C350.74 491.051 351.561 490.403 351.561 489.497V488.887L349.795 488.997C348.943 489.059 348.459 489.442 348.459 490.036C348.459 490.661 348.975 491.051 349.74 491.051ZM356.42 492.731C355.732 492.731 355.279 492.301 355.279 491.543V485.168C355.279 484.442 355.725 484.02 356.381 484.02C357.021 484.02 357.459 484.442 357.459 485.168V485.715H357.506C357.725 484.676 358.412 484.059 359.248 484.059C359.553 484.059 359.795 484.129 359.959 484.27C360.178 484.442 360.287 484.723 360.287 485.114C360.287 485.473 360.178 485.747 359.959 485.934C359.74 486.122 359.412 486.223 358.967 486.231C357.928 486.247 357.561 486.833 357.561 487.825V491.543C357.561 492.301 357.115 492.731 356.42 492.731ZM363.936 492.7C361.842 492.7 360.521 491.043 360.521 488.364C360.521 485.708 361.85 484.059 363.951 484.059C365.162 484.059 366.1 484.7 366.506 485.629H366.553V482.317C366.553 481.536 367.029 481.122 367.693 481.122C368.365 481.122 368.834 481.536 368.834 482.317V491.575C368.834 492.333 368.365 492.731 367.701 492.731C367.045 492.731 366.553 492.34 366.553 491.575V491.09H366.514C366.146 492.028 365.225 492.7 363.936 492.7ZM364.709 490.864C365.842 490.864 366.568 489.911 366.568 488.379C366.568 486.856 365.842 485.887 364.709 485.887C363.561 485.887 362.857 486.848 362.857 488.379C362.857 489.918 363.561 490.864 364.709 490.864ZM374.67 492.731C374.006 492.731 373.529 492.325 373.529 491.543V485.168C373.529 484.458 373.943 484.02 374.631 484.02C375.318 484.02 375.771 484.458 375.771 485.176V485.645H375.818C376.264 484.606 377.107 484.036 378.396 484.036C380.256 484.036 381.303 485.208 381.303 487.168V491.543C381.303 492.325 380.826 492.731 380.162 492.731C379.49 492.731 379.021 492.325 379.021 491.543V487.645C379.021 486.551 378.506 485.926 377.482 485.926C376.459 485.926 375.811 486.676 375.811 487.762V491.543C375.811 492.325 375.342 492.731 374.67 492.731ZM385.725 492.723C383.912 492.723 382.709 491.543 382.709 489.59V485.215C382.709 484.434 383.186 484.02 383.85 484.02C384.521 484.02 384.99 484.434 384.99 485.215V489.114C384.99 490.231 385.545 490.825 386.553 490.825C387.568 490.825 388.201 490.098 388.201 488.989V485.215C388.201 484.434 388.678 484.02 389.342 484.02C390.014 484.02 390.482 484.434 390.482 485.215V491.575C390.482 492.333 390.037 492.731 389.381 492.731C388.725 492.731 388.279 492.333 388.279 491.575V491.059H388.232C387.818 492.114 386.99 492.723 385.725 492.723ZM393.107 492.731C392.428 492.731 391.967 492.317 391.967 491.543V485.184C391.967 484.418 392.42 484.02 393.068 484.02C393.717 484.02 394.17 484.418 394.17 485.184V485.708H394.217C394.568 484.7 395.467 484.036 396.607 484.036C397.818 484.036 398.662 484.661 398.943 485.754H398.99C399.365 484.7 400.365 484.036 401.592 484.036C403.232 484.036 404.334 485.161 404.334 486.848V491.543C404.334 492.317 403.865 492.731 403.186 492.731C402.514 492.731 402.053 492.317 402.053 491.543V487.418C402.053 486.45 401.568 485.918 400.686 485.918C399.818 485.918 399.248 486.551 399.248 487.481V491.543C399.248 492.317 398.826 492.731 398.146 492.731C397.475 492.731 397.053 492.317 397.053 491.543V487.348C397.053 486.45 396.545 485.918 395.701 485.918C394.834 485.918 394.248 486.575 394.248 487.512V491.543C394.248 492.317 393.779 492.731 393.107 492.731ZM406.951 492.731C406.295 492.731 405.834 492.34 405.834 491.575V482.317C405.834 481.536 406.311 481.122 406.975 481.122C407.646 481.122 408.115 481.536 408.115 482.317V485.645H408.162C408.623 484.653 409.561 484.059 410.748 484.059C412.865 484.059 414.154 485.676 414.154 488.379C414.154 491.075 412.873 492.7 410.756 492.7C409.529 492.7 408.6 492.106 408.131 491.129H408.084V491.575C408.084 492.333 407.615 492.731 406.951 492.731ZM409.975 490.864C411.107 490.864 411.818 489.911 411.818 488.379C411.818 486.856 411.107 485.887 409.975 485.887C408.865 485.887 408.107 486.879 408.107 488.379C408.107 489.895 408.865 490.864 409.975 490.864ZM419.193 492.747C416.576 492.747 415.037 491.129 415.037 488.418C415.037 485.723 416.607 484.012 419.084 484.012C421.459 484.012 423.053 485.637 423.053 487.911C423.053 488.543 422.693 488.903 422.061 488.903H417.279V489.004C417.279 490.247 418.029 491.059 419.186 491.059C420.021 491.059 420.568 490.778 421.186 490.051C421.428 489.801 421.631 489.715 421.928 489.715C422.42 489.715 422.818 490.028 422.818 490.551C422.818 490.731 422.764 490.918 422.662 491.106C422.107 492.137 420.811 492.747 419.193 492.747ZM417.303 487.504H420.857C420.811 486.411 420.107 485.7 419.107 485.7C418.107 485.7 417.381 486.434 417.303 487.504ZM425.373 492.731C424.686 492.731 424.232 492.301 424.232 491.543V485.168C424.232 484.442 424.678 484.02 425.334 484.02C425.975 484.02 426.412 484.442 426.412 485.168V485.715H426.459C426.678 484.676 427.365 484.059 428.201 484.059C428.506 484.059 428.748 484.129 428.912 484.27C429.131 484.442 429.24 484.723 429.24 485.114C429.24 485.473 429.131 485.747 428.912 485.934C428.693 486.122 428.365 486.223 427.92 486.231C426.881 486.247 426.514 486.833 426.514 487.825V491.543C426.514 492.301 426.068 492.731 425.373 492.731Z" fill="#A5C8D8"/>
<path d="M335.162 523.125C335.162 514.703 341.99 507.875 350.412 507.875H579.978C588.401 507.875 595.228 514.703 595.228 523.125V536.105C595.228 544.527 588.401 551.355 579.978 551.355H350.412C341.99 551.355 335.162 544.527 335.162 536.105V523.125Z" stroke="#748E99" stroke-width="1.5"/>
<rect opacity="0.4" x="350.902" y="523.615" width="32" height="12" rx="6" fill="#748E99"/>
<rect opacity="0.4" x="392.607" y="523.615" width="32" height="12" rx="6" fill="#748E99"/>
<rect opacity="0.4" x="434.312" y="523.615" width="32" height="12" rx="6" fill="#748E99"/>
<rect opacity="0.4" x="476.018" y="523.615" width="32" height="12" rx="6" fill="#748E99"/>
<path d="M618.049 492.715C617.338 492.715 616.916 492.286 616.916 491.536V482.317C616.916 481.567 617.354 481.137 618.104 481.137C618.588 481.137 618.916 481.333 619.275 481.825L624.15 488.637H624.213V482.325C624.213 481.567 624.635 481.137 625.346 481.137C626.057 481.137 626.471 481.567 626.471 482.325V491.567C626.471 492.301 626.057 492.715 625.314 492.715C624.807 492.715 624.494 492.536 624.135 492.036L619.244 485.184H619.174V491.536C619.174 492.286 618.752 492.715 618.049 492.715ZM630.463 492.7C628.869 492.7 627.658 491.668 627.658 490.161C627.658 488.637 628.83 487.754 630.924 487.629L633.033 487.504V486.95C633.033 486.168 632.486 485.715 631.627 485.715C630.932 485.715 630.51 485.942 630.002 486.598C629.752 486.879 629.463 487.02 629.096 487.02C628.541 487.02 628.143 486.661 628.143 486.145C628.143 485.965 628.182 485.801 628.26 485.629C628.65 484.629 629.994 484.012 631.729 484.012C633.877 484.012 635.275 485.122 635.275 486.809V491.583C635.275 492.34 634.814 492.731 634.166 492.731C633.549 492.731 633.119 492.387 633.072 491.715V491.286H633.025C632.557 492.176 631.51 492.7 630.463 492.7ZM631.213 491.051C632.213 491.051 633.033 490.403 633.033 489.497V488.887L631.268 488.997C630.416 489.059 629.932 489.442 629.932 490.036C629.932 490.661 630.447 491.051 631.213 491.051ZM637.893 492.731C637.213 492.731 636.752 492.317 636.752 491.543V485.184C636.752 484.418 637.205 484.02 637.854 484.02C638.502 484.02 638.955 484.418 638.955 485.184V485.708H639.002C639.354 484.7 640.252 484.036 641.393 484.036C642.604 484.036 643.447 484.661 643.729 485.754H643.775C644.15 484.7 645.15 484.036 646.377 484.036C648.018 484.036 649.119 485.161 649.119 486.848V491.543C649.119 492.317 648.65 492.731 647.971 492.731C647.299 492.731 646.838 492.317 646.838 491.543V487.418C646.838 486.45 646.354 485.918 645.471 485.918C644.604 485.918 644.033 486.551 644.033 487.481V491.543C644.033 492.317 643.611 492.731 642.932 492.731C642.26 492.731 641.838 492.317 641.838 491.543V487.348C641.838 486.45 641.33 485.918 640.486 485.918C639.619 485.918 639.033 486.575 639.033 487.512V491.543C639.033 492.317 638.564 492.731 637.893 492.731ZM654.416 492.747C651.799 492.747 650.26 491.129 650.26 488.418C650.26 485.723 651.83 484.012 654.307 484.012C656.682 484.012 658.275 485.637 658.275 487.911C658.275 488.543 657.916 488.903 657.283 488.903H652.502V489.004C652.502 490.247 653.252 491.059 654.408 491.059C655.244 491.059 655.791 490.778 656.408 490.051C656.65 489.801 656.854 489.715 657.15 489.715C657.643 489.715 658.041 490.028 658.041 490.551C658.041 490.731 657.986 490.918 657.885 491.106C657.33 492.137 656.033 492.747 654.416 492.747ZM652.525 487.504H656.08C656.033 486.411 655.33 485.7 654.33 485.7C653.33 485.7 652.604 486.434 652.525 487.504ZM666.471 492.747C663.939 492.747 662.322 491.122 662.322 488.372C662.322 485.661 663.963 484.012 666.471 484.012C668.979 484.012 670.619 485.653 670.619 488.372C670.619 491.129 669.002 492.747 666.471 492.747ZM666.471 491.004C667.588 491.004 668.299 490.059 668.299 488.379C668.299 486.715 667.58 485.754 666.471 485.754C665.361 485.754 664.635 486.715 664.635 488.379C664.635 490.059 665.346 491.004 666.471 491.004ZM672.939 492.731C672.275 492.731 671.799 492.325 671.799 491.543V485.168C671.799 484.458 672.213 484.02 672.9 484.02C673.588 484.02 674.041 484.458 674.041 485.176V485.645H674.088C674.533 484.606 675.377 484.036 676.666 484.036C678.525 484.036 679.572 485.208 679.572 487.168V491.543C679.572 492.325 679.096 492.731 678.432 492.731C677.76 492.731 677.291 492.325 677.291 491.543V487.645C677.291 486.551 676.775 485.926 675.752 485.926C674.729 485.926 674.08 486.676 674.08 487.762V491.543C674.08 492.325 673.611 492.731 672.939 492.731ZM688.01 492.747C685.486 492.747 683.885 491.09 683.885 488.379C683.885 485.7 685.479 484.012 687.994 484.012C689.674 484.012 691.072 484.825 691.525 486.012C691.604 486.208 691.65 486.411 691.65 486.575C691.65 487.137 691.213 487.465 690.674 487.465C690.221 487.465 689.947 487.286 689.713 486.872C689.299 486.137 688.791 485.801 688.064 485.801C686.908 485.801 686.197 486.754 686.197 488.372C686.197 490.02 686.908 490.958 688.049 490.958C688.846 490.958 689.338 490.567 689.689 489.973C689.994 489.497 690.244 489.301 690.729 489.301C691.26 489.301 691.689 489.653 691.689 490.215C691.689 490.395 691.643 490.583 691.541 490.809C691.041 491.95 689.611 492.747 688.01 492.747ZM695.385 492.7C693.791 492.7 692.58 491.668 692.58 490.161C692.58 488.637 693.752 487.754 695.846 487.629L697.955 487.504V486.95C697.955 486.168 697.408 485.715 696.549 485.715C695.854 485.715 695.432 485.942 694.924 486.598C694.674 486.879 694.385 487.02 694.018 487.02C693.463 487.02 693.064 486.661 693.064 486.145C693.064 485.965 693.104 485.801 693.182 485.629C693.572 484.629 694.916 484.012 696.65 484.012C698.799 484.012 700.197 485.122 700.197 486.809V491.583C700.197 492.34 699.736 492.731 699.088 492.731C698.471 492.731 698.041 492.387 697.994 491.715V491.286H697.947C697.479 492.176 696.432 492.7 695.385 492.7ZM696.135 491.051C697.135 491.051 697.955 490.403 697.955 489.497V488.887L696.189 488.997C695.338 489.059 694.854 489.442 694.854 490.036C694.854 490.661 695.369 491.051 696.135 491.051ZM702.814 492.731C702.127 492.731 701.674 492.301 701.674 491.543V485.168C701.674 484.442 702.119 484.02 702.775 484.02C703.416 484.02 703.854 484.442 703.854 485.168V485.715H703.9C704.119 484.676 704.807 484.059 705.643 484.059C705.947 484.059 706.189 484.129 706.354 484.27C706.572 484.442 706.682 484.723 706.682 485.114C706.682 485.473 706.572 485.747 706.354 485.934C706.135 486.122 705.807 486.223 705.361 486.231C704.322 486.247 703.955 486.833 703.955 487.825V491.543C703.955 492.301 703.51 492.731 702.814 492.731ZM710.33 492.7C708.236 492.7 706.916 491.043 706.916 488.364C706.916 485.708 708.244 484.059 710.346 484.059C711.557 484.059 712.494 484.7 712.9 485.629H712.947V482.317C712.947 481.536 713.424 481.122 714.088 481.122C714.76 481.122 715.229 481.536 715.229 482.317V491.575C715.229 492.333 714.76 492.731 714.096 492.731C713.439 492.731 712.947 492.34 712.947 491.575V491.09H712.908C712.541 492.028 711.619 492.7 710.33 492.7ZM711.104 490.864C712.236 490.864 712.963 489.911 712.963 488.379C712.963 486.856 712.236 485.887 711.104 485.887C709.955 485.887 709.252 486.848 709.252 488.379C709.252 489.918 709.955 490.864 711.104 490.864Z" fill="#A5C8D8"/>
<rect x="616.729" y="507.875" width="260.066" height="43.4796" rx="15.25" stroke="#748E99" stroke-width="1.5"/>
<rect opacity="0.4" x="632.469" y="523.615" width="108" height="12" rx="6" fill="#748E99"/>
<path d="M336.529 587.957C335.787 587.957 335.35 587.504 335.35 586.723V577.91C335.35 577.137 335.787 576.684 336.529 576.684H341.889C342.537 576.684 342.959 577.051 342.959 577.66C342.959 578.27 342.529 578.637 341.889 578.637H337.709V581.348H341.686C342.271 581.348 342.67 581.691 342.67 582.254C342.67 582.816 342.279 583.16 341.686 583.16H337.709V586.004H341.889C342.529 586.004 342.959 586.371 342.959 586.98C342.959 587.59 342.537 587.957 341.889 587.957H336.529ZM345.146 588.121C344.545 588.121 344.115 587.738 344.115 587.191C344.115 586.918 344.201 586.699 344.42 586.41L346.381 583.785L344.428 581.121C344.264 580.902 344.186 580.676 344.186 580.41C344.186 579.84 344.654 579.41 345.279 579.41C345.74 579.41 345.982 579.574 346.287 580.059L347.85 582.41H347.896L349.428 580.074C349.732 579.598 349.975 579.41 350.396 579.41C351.037 579.41 351.467 579.801 351.467 580.379C351.467 580.66 351.381 580.887 351.162 581.168L349.248 583.723L351.193 586.41C351.365 586.645 351.443 586.863 351.443 587.113C351.443 587.73 350.975 588.121 350.357 588.121C349.912 588.121 349.693 587.934 349.436 587.543L347.771 585.051H347.725L346.092 587.504C345.779 587.988 345.553 588.121 345.146 588.121ZM353.92 590.941C353.256 590.941 352.779 590.535 352.779 589.754V580.582C352.779 579.816 353.248 579.41 353.904 579.41C354.561 579.41 355.029 579.816 355.029 580.59V581.043H355.076C355.529 580.059 356.459 579.449 357.67 579.449C359.795 579.449 361.1 581.066 361.1 583.77C361.1 586.465 359.803 588.09 357.709 588.09C356.49 588.09 355.553 587.496 355.107 586.551H355.061V589.754C355.061 590.535 354.592 590.941 353.92 590.941ZM356.904 586.254C358.045 586.254 358.764 585.293 358.764 583.77C358.764 582.254 358.045 581.277 356.904 581.277C355.787 581.277 355.053 582.27 355.053 583.77C355.053 585.285 355.787 586.254 356.904 586.254ZM363.459 578.543C362.771 578.543 362.24 578.02 362.24 577.363C362.24 576.699 362.771 576.184 363.459 576.184C364.146 576.184 364.678 576.699 364.678 577.363C364.678 578.02 364.146 578.543 363.459 578.543ZM363.459 588.121C362.748 588.121 362.318 587.676 362.318 586.934V580.605C362.318 579.863 362.748 579.41 363.459 579.41C364.162 579.41 364.6 579.863 364.6 580.605V586.934C364.6 587.676 364.162 588.121 363.459 588.121ZM367.264 588.121C366.576 588.121 366.123 587.691 366.123 586.934V580.559C366.123 579.832 366.568 579.41 367.225 579.41C367.865 579.41 368.303 579.832 368.303 580.559V581.105H368.35C368.568 580.066 369.256 579.449 370.092 579.449C370.396 579.449 370.639 579.52 370.803 579.66C371.021 579.832 371.131 580.113 371.131 580.504C371.131 580.863 371.021 581.137 370.803 581.324C370.584 581.512 370.256 581.613 369.811 581.621C368.771 581.637 368.404 582.223 368.404 583.215V586.934C368.404 587.691 367.959 588.121 367.264 588.121ZM374.225 588.09C372.631 588.09 371.42 587.059 371.42 585.551C371.42 584.027 372.592 583.145 374.686 583.02L376.795 582.895V582.34C376.795 581.559 376.248 581.105 375.389 581.105C374.693 581.105 374.271 581.332 373.764 581.988C373.514 582.27 373.225 582.41 372.857 582.41C372.303 582.41 371.904 582.051 371.904 581.535C371.904 581.355 371.943 581.191 372.021 581.02C372.412 580.02 373.756 579.402 375.49 579.402C377.639 579.402 379.037 580.512 379.037 582.199V586.973C379.037 587.73 378.576 588.121 377.928 588.121C377.311 588.121 376.881 587.777 376.834 587.105V586.676H376.787C376.318 587.566 375.271 588.09 374.225 588.09ZM374.975 586.441C375.975 586.441 376.795 585.793 376.795 584.887V584.277L375.029 584.387C374.178 584.449 373.693 584.832 373.693 585.426C373.693 586.051 374.209 586.441 374.975 586.441ZM381.123 585.816V581.301H380.686C380.146 581.301 379.803 580.973 379.803 580.441C379.803 579.91 380.146 579.582 380.686 579.582H381.123V578.652C381.123 577.918 381.553 577.465 382.264 577.465C382.975 577.465 383.404 577.918 383.404 578.652V579.582H384.209C384.748 579.582 385.084 579.918 385.084 580.441C385.084 580.965 384.748 581.301 384.209 581.301H383.404V585.309C383.404 585.902 383.607 586.152 384.1 586.191L384.248 586.207C384.811 586.27 385.115 586.504 385.115 587.035C385.115 587.707 384.459 588.051 383.498 588.051H383.42C381.896 588.051 381.123 587.293 381.123 585.816ZM387.381 578.543C386.693 578.543 386.162 578.02 386.162 577.363C386.162 576.699 386.693 576.184 387.381 576.184C388.068 576.184 388.6 576.699 388.6 577.363C388.6 578.02 388.068 578.543 387.381 578.543ZM387.381 588.121C386.67 588.121 386.24 587.676 386.24 586.934V580.605C386.24 579.863 386.67 579.41 387.381 579.41C388.084 579.41 388.521 579.863 388.521 580.605V586.934C388.521 587.676 388.084 588.121 387.381 588.121ZM393.889 588.137C391.357 588.137 389.74 586.512 389.74 583.762C389.74 581.051 391.381 579.402 393.889 579.402C396.396 579.402 398.037 581.043 398.037 583.762C398.037 586.52 396.42 588.137 393.889 588.137ZM393.889 586.395C395.006 586.395 395.717 585.449 395.717 583.77C395.717 582.105 394.998 581.145 393.889 581.145C392.779 581.145 392.053 582.105 392.053 583.77C392.053 585.449 392.764 586.395 393.889 586.395ZM400.357 588.121C399.693 588.121 399.217 587.715 399.217 586.934V580.559C399.217 579.848 399.631 579.41 400.318 579.41C401.006 579.41 401.459 579.848 401.459 580.566V581.035H401.506C401.951 579.996 402.795 579.426 404.084 579.426C405.943 579.426 406.99 580.598 406.99 582.559V586.934C406.99 587.715 406.514 588.121 405.85 588.121C405.178 588.121 404.709 587.715 404.709 586.934V583.035C404.709 581.941 404.193 581.316 403.17 581.316C402.146 581.316 401.498 582.066 401.498 583.152V586.934C401.498 587.715 401.029 588.121 400.357 588.121ZM414.717 588.09C412.623 588.09 411.303 586.434 411.303 583.754C411.303 581.098 412.631 579.449 414.732 579.449C415.943 579.449 416.881 580.09 417.287 581.02H417.334V577.707C417.334 576.926 417.811 576.512 418.475 576.512C419.146 576.512 419.615 576.926 419.615 577.707V586.965C419.615 587.723 419.146 588.121 418.482 588.121C417.826 588.121 417.334 587.73 417.334 586.965V586.48H417.295C416.928 587.418 416.006 588.09 414.717 588.09ZM415.49 586.254C416.623 586.254 417.35 585.301 417.35 583.77C417.35 582.246 416.623 581.277 415.49 581.277C414.342 581.277 413.639 582.238 413.639 583.77C413.639 585.309 414.342 586.254 415.49 586.254ZM423.615 588.09C422.021 588.09 420.811 587.059 420.811 585.551C420.811 584.027 421.982 583.145 424.076 583.02L426.186 582.895V582.34C426.186 581.559 425.639 581.105 424.779 581.105C424.084 581.105 423.662 581.332 423.154 581.988C422.904 582.27 422.615 582.41 422.248 582.41C421.693 582.41 421.295 582.051 421.295 581.535C421.295 581.355 421.334 581.191 421.412 581.02C421.803 580.02 423.146 579.402 424.881 579.402C427.029 579.402 428.428 580.512 428.428 582.199V586.973C428.428 587.73 427.967 588.121 427.318 588.121C426.701 588.121 426.271 587.777 426.225 587.105V586.676H426.178C425.709 587.566 424.662 588.09 423.615 588.09ZM424.365 586.441C425.365 586.441 426.186 585.793 426.186 584.887V584.277L424.42 584.387C423.568 584.449 423.084 584.832 423.084 585.426C423.084 586.051 423.6 586.441 424.365 586.441ZM430.514 585.816V581.301H430.076C429.537 581.301 429.193 580.973 429.193 580.441C429.193 579.91 429.537 579.582 430.076 579.582H430.514V578.652C430.514 577.918 430.943 577.465 431.654 577.465C432.365 577.465 432.795 577.918 432.795 578.652V579.582H433.6C434.139 579.582 434.475 579.918 434.475 580.441C434.475 580.965 434.139 581.301 433.6 581.301H432.795V585.309C432.795 585.902 432.998 586.152 433.49 586.191L433.639 586.207C434.201 586.27 434.506 586.504 434.506 587.035C434.506 587.707 433.85 588.051 432.889 588.051H432.811C431.287 588.051 430.514 587.293 430.514 585.816ZM439.318 588.137C436.701 588.137 435.162 586.52 435.162 583.809C435.162 581.113 436.732 579.402 439.209 579.402C441.584 579.402 443.178 581.027 443.178 583.301C443.178 583.934 442.818 584.293 442.186 584.293H437.404V584.395C437.404 585.637 438.154 586.449 439.311 586.449C440.146 586.449 440.693 586.168 441.311 585.441C441.553 585.191 441.756 585.105 442.053 585.105C442.545 585.105 442.943 585.418 442.943 585.941C442.943 586.121 442.889 586.309 442.787 586.496C442.232 587.527 440.936 588.137 439.318 588.137ZM437.428 582.895H440.982C440.936 581.801 440.232 581.09 439.232 581.09C438.232 581.09 437.506 581.824 437.428 582.895Z" fill="#A5C8D8"/>
<rect x="335.162" y="603.265" width="126.283" height="43.4796" rx="15.25" stroke="#748E99" stroke-width="1.5"/>
<rect opacity="0.4" x="350.902" y="619.005" width="32" height="12" rx="6" fill="#748E99"/>
<rect x="470.945" y="603.265" width="126.283" height="43.4796" rx="15.25" stroke="#748E99" stroke-width="1.5"/>
<rect opacity="0.4" x="486.686" y="619.005" width="32" height="12" rx="6" fill="#748E99"/>
<path d="M619.939 588.145C616.596 588.145 614.564 585.957 614.564 582.316C614.564 578.684 616.635 576.488 619.877 576.488C621.986 576.488 623.619 577.426 624.393 579.051C624.549 579.348 624.627 579.652 624.627 579.934C624.627 580.551 624.213 580.949 623.588 580.949C623.057 580.949 622.721 580.715 622.463 580.168C621.947 579.02 621.025 578.441 619.9 578.441C618.119 578.441 616.971 579.934 616.971 582.309C616.971 584.715 618.104 586.199 619.908 586.199C621.096 586.199 621.986 585.66 622.494 584.527C622.736 583.996 623.033 583.785 623.533 583.785C624.197 583.785 624.635 584.207 624.635 584.832C624.635 585.098 624.572 585.348 624.455 585.621C623.752 587.184 622.072 588.145 619.939 588.145ZM630.65 588.105C629.729 588.105 629.182 587.699 628.838 586.738L625.697 578.309C625.619 578.09 625.58 577.871 625.58 577.645C625.58 576.98 626.08 576.527 626.822 576.527C627.455 576.527 627.83 576.816 628.025 577.457L630.666 585.527H630.721L633.354 577.434C633.549 576.801 633.9 576.527 634.518 576.527C635.236 576.527 635.729 576.973 635.729 577.613C635.729 577.824 635.689 578.035 635.611 578.246L632.455 586.746C632.111 587.699 631.564 588.105 630.65 588.105ZM641.51 588.105C640.588 588.105 640.041 587.699 639.697 586.738L636.557 578.309C636.479 578.09 636.439 577.871 636.439 577.645C636.439 576.98 636.939 576.527 637.682 576.527C638.314 576.527 638.689 576.816 638.885 577.457L641.525 585.527H641.58L644.213 577.434C644.408 576.801 644.76 576.527 645.377 576.527C646.096 576.527 646.588 576.973 646.588 577.613C646.588 577.824 646.549 578.035 646.471 578.246L643.314 586.746C642.971 587.699 642.424 588.105 641.51 588.105ZM647.213 590.629C646.564 590.629 646.197 590.23 646.197 589.715C646.197 589.559 646.221 589.418 646.252 589.301L649.705 577.395C649.877 576.793 650.197 576.512 650.752 576.512C651.361 576.512 651.768 576.902 651.768 577.473C651.768 577.613 651.752 577.73 651.713 577.863L648.252 589.809C648.088 590.371 647.768 590.629 647.213 590.629ZM658.002 588.145C654.658 588.145 652.627 585.957 652.627 582.316C652.627 578.684 654.697 576.488 657.939 576.488C660.049 576.488 661.682 577.426 662.455 579.051C662.611 579.348 662.689 579.652 662.689 579.934C662.689 580.551 662.275 580.949 661.65 580.949C661.119 580.949 660.783 580.715 660.525 580.168C660.01 579.02 659.088 578.441 657.963 578.441C656.182 578.441 655.033 579.934 655.033 582.309C655.033 584.715 656.166 586.199 657.971 586.199C659.158 586.199 660.049 585.66 660.557 584.527C660.799 583.996 661.096 583.785 661.596 583.785C662.26 583.785 662.697 584.207 662.697 584.832C662.697 585.098 662.635 585.348 662.518 585.621C661.814 587.184 660.135 588.145 658.002 588.145ZM668.713 588.105C667.791 588.105 667.244 587.699 666.9 586.738L663.76 578.309C663.682 578.09 663.643 577.871 663.643 577.645C663.643 576.98 664.143 576.527 664.885 576.527C665.518 576.527 665.893 576.816 666.088 577.457L668.729 585.527H668.783L671.416 577.434C671.611 576.801 671.963 576.527 672.58 576.527C673.299 576.527 673.791 576.973 673.791 577.613C673.791 577.824 673.752 578.035 673.674 578.246L670.518 586.746C670.174 587.699 669.627 588.105 668.713 588.105ZM676.268 587.957C675.525 587.957 675.088 587.504 675.088 586.723V577.91C675.088 577.137 675.525 576.684 676.268 576.684H679.393C682.775 576.684 684.768 578.699 684.768 582.277C684.768 585.855 682.775 587.957 679.393 587.957H676.268ZM677.447 586.004H679.111C681.221 586.004 682.361 584.723 682.361 582.285C682.361 579.926 681.189 578.629 679.111 578.629H677.447V586.004Z" fill="#A5C8D8"/>
<rect x="614.729" y="603.265" width="262.066" height="43.4796" rx="15.25" stroke="#748E99" stroke-width="1.5"/>
<rect opacity="0.4" x="630.469" y="619.005" width="32" height="12" rx="6" fill="#748E99"/>
<rect x="309.678" y="696.229" width="592.602" height="53.1827" rx="20" fill="#A5C8D8"/>
<path d="M539.135 731.32V714.006H546.11C549.696 714.006 552.194 716.455 552.194 719.646C552.194 722.861 549.696 725.31 546.11 725.31H542.35V731.32H539.135ZM542.35 722.737H545.788C547.619 722.737 548.929 721.451 548.929 719.646C548.929 717.84 547.619 716.554 545.788 716.554H542.35V722.737ZM557.523 731.592C555.173 731.592 553.491 730.257 553.491 728.105C553.491 725.78 555.495 724.469 559.18 724.048L561.48 723.801V723.43C561.48 721.921 560.639 720.981 559.205 720.981C557.894 720.981 556.954 721.797 556.83 723.257L553.862 723.183C554.011 720.437 556.237 718.508 559.304 718.508C562.371 718.508 564.523 720.536 564.523 723.504V727.635C564.523 728.971 564.646 730.405 564.82 731.32H561.827C561.703 730.776 561.629 730.207 561.629 729.218C560.961 730.652 559.378 731.592 557.523 731.592ZM556.558 727.833C556.558 728.921 557.399 729.465 558.488 729.465C560.194 729.465 561.53 728.154 561.53 726.274V725.656L559.403 725.903C557.597 726.126 556.558 726.621 556.558 727.833ZM566.546 733.621C567.956 733.992 569.638 733.843 570.553 731.889L570.924 731.023L565.705 718.879H568.97L572.606 727.585L575.97 718.879H579.087L573.794 731.79C572.285 735.55 569.688 736.96 566.546 736.193V733.621ZM585.484 731.32V718.879H588.551L588.477 721.525C589.021 719.695 590.406 718.582 592.41 718.582C595.106 718.582 596.911 720.585 596.911 723.653V731.32H593.844V724.123C593.844 722.193 592.929 721.055 591.297 721.055C589.54 721.055 588.551 722.366 588.551 724.667V731.32H585.484ZM605.434 731.691C601.649 731.691 598.928 728.946 598.928 725.087C598.928 721.253 601.649 718.508 605.434 718.508C609.193 718.508 611.914 721.253 611.914 725.087C611.914 728.946 609.193 731.691 605.434 731.691ZM602.02 725.087C602.02 727.437 603.405 729.094 605.434 729.094C607.437 729.094 608.822 727.437 608.822 725.087C608.822 722.762 607.437 721.105 605.434 721.105C603.405 721.105 602.02 722.762 602.02 725.087ZM616.77 731.32L612.59 718.879H615.905L618.625 727.808L621.198 718.879H624.537L627.134 727.808L629.83 718.879H633.095L628.915 731.32H625.551L622.855 722.342L620.184 731.32H616.77Z" fill="#10242F"/>
<path d="M659.721 717.703C659.626 717.739 659.546 717.799 659.489 717.876C659.433 717.953 659.402 718.043 659.402 718.136L659.402 727.505C659.402 727.598 659.432 727.688 659.489 727.765C659.546 727.842 659.626 727.902 659.72 727.938C659.815 727.973 659.918 727.983 660.018 727.965C660.118 727.947 660.21 727.902 660.282 727.836L665.435 723.152C665.483 723.108 665.521 723.057 665.547 723C665.573 722.943 665.586 722.882 665.586 722.82C665.586 722.759 665.573 722.698 665.547 722.641C665.521 722.584 665.483 722.532 665.435 722.489L660.282 717.805C660.21 717.739 660.118 717.694 660.018 717.676C659.918 717.658 659.815 717.668 659.721 717.703Z" fill="#10242F"/>
<rect x="871.973" y="112.187" width="618" height="609" rx="24" transform="rotate(4 871.973 112.187)" fill="white"/>
<rect x="916.508" y="163.418" width="522" height="347" rx="20" transform="rotate(4 916.508 163.418)" fill="#A5C8D8"/>
<circle cx="1164.76" cy="355.202" r="91" transform="rotate(4 1164.76 355.202)" fill="#E1EDF2"/>
<path d="M1207.56 353.965C1204.37 368.929 1194.19 382.279 1180.51 389.428C1166.84 396.578 1149.93 397.392 1135.6 391.592C1143.38 371.222 1157.29 353.19 1175.1 340.371C1162.72 345.495 1152.59 354.961 1144.72 365.698C1136.85 376.435 1131.04 388.483 1125.27 400.453C1120.66 399.408 1118.68 396.246 1118.68 396.246C1119.03 394.353 1123.2 387.034 1127.4 380.122C1120.06 368.169 1127.03 351.37 1138.2 342.616C1146.81 335.867 1160.74 332.77 1171.1 329.138C1181.46 325.507 1192.11 320.229 1197.32 310.668C1206.9 322.702 1210.76 339 1207.56 353.965Z" fill="#10242F"/>
<path d="M897.464 571.725C897.058 571.697 896.752 571.378 896.782 570.941L896.937 568.728C893.555 568.257 890.859 566.282 890.373 563.366C890.342 563.145 890.326 562.925 890.34 562.722C890.381 562.13 890.814 561.768 891.391 561.809C891.889 561.843 892.229 562.133 892.375 562.739C892.699 564.829 894.247 566.425 897.067 566.873L897.659 558.409L897.183 558.267C893.29 557.039 891.338 555.164 891.545 552.202C891.775 548.913 894.722 546.864 898.466 546.859L898.612 544.771C898.643 544.334 898.991 544.061 899.396 544.089C899.817 544.119 900.124 544.438 900.093 544.874L899.948 546.947C903.189 547.409 905.65 549.398 906.12 552.094C906.167 552.316 906.183 552.537 906.168 552.755C906.127 553.332 905.695 553.693 905.118 553.653C904.557 553.613 904.252 553.263 904.135 552.707C903.702 550.609 902.171 549.202 899.817 548.818L899.256 556.845L899.961 557.067C903.962 558.318 906.027 560.138 905.805 563.318C905.551 566.949 902.33 568.886 898.417 568.847L898.263 571.045C898.233 571.481 897.885 571.755 897.464 571.725ZM897.631 556.34L897.8 556.383L898.336 548.73C895.575 548.787 893.761 550.305 893.627 552.222C893.501 554.031 894.658 555.396 897.631 556.34ZM899.497 558.992L899.114 558.871L898.548 566.977C901.849 567.02 903.57 565.48 903.722 563.313C903.86 561.334 902.824 560.024 899.497 558.992ZM911.845 570.35C911.252 570.309 910.871 569.937 910.909 569.392C910.926 569.158 910.985 568.974 911.144 568.719L922.37 550.191L922.375 550.129L910.762 549.317C910.186 549.277 909.774 548.888 909.816 548.295C909.856 547.719 910.319 547.375 910.895 547.415L923.38 548.288C924.238 548.348 924.718 548.867 924.661 549.694C924.632 550.099 924.469 550.416 924.098 551.017L912.855 569.794C912.59 570.214 912.297 570.382 911.845 570.35ZM933.504 571.958C930.075 571.719 927.442 569.718 926.695 566.971C926.581 566.587 926.511 566.238 926.541 565.802C926.584 565.194 927.001 564.831 927.609 564.874C928.154 564.912 928.401 565.195 928.557 565.88C929.048 568.264 931.002 569.888 933.683 570.076C937.003 570.308 939.569 568.107 939.803 564.755C940.03 561.513 937.795 558.976 934.537 558.748C932.698 558.62 930.976 559.282 929.825 560.502C928.987 561.289 928.791 561.401 928.23 561.362C927.544 561.314 927.204 560.804 927.264 560.166C927.27 560.088 927.274 560.026 927.282 559.917L928.908 550.32C929.099 549.158 929.678 548.729 930.909 548.815L940.76 549.504C941.368 549.546 941.731 549.948 941.691 550.524C941.651 551.101 941.235 551.448 940.627 551.405L930.807 550.719L929.366 559.013L929.412 559.017C930.627 557.551 932.718 556.773 935.024 556.934C939.326 557.235 942.243 560.556 941.942 564.858C941.629 569.331 938.102 572.28 933.504 571.958Z" fill="#10242F"/>
<path d="M964.3 576.399C963.894 576.371 963.588 576.052 963.618 575.615L963.773 573.402C960.391 572.93 957.694 570.956 957.209 568.04C957.178 567.819 957.162 567.598 957.176 567.396C957.217 566.803 957.65 566.442 958.227 566.482C958.725 566.517 959.065 566.807 959.211 567.413C959.535 569.503 961.083 571.099 963.903 571.547L964.495 563.083L964.019 562.94C960.126 561.713 958.174 559.838 958.381 556.876C958.611 553.587 961.558 551.538 965.302 551.533L965.448 549.445C965.479 549.008 965.827 548.735 966.232 548.763C966.653 548.793 966.96 549.112 966.929 549.548L966.784 551.621C970.025 552.083 972.486 554.072 972.956 556.767C973.003 556.99 973.019 557.21 973.004 557.429C972.963 558.005 972.531 558.367 971.954 558.326C971.393 558.287 971.088 557.937 970.971 557.38C970.538 555.283 969.007 553.876 966.653 553.492L966.092 561.519L966.797 561.741C970.798 562.991 972.863 564.812 972.641 567.992C972.387 571.623 969.166 573.56 965.253 573.521L965.099 575.719C965.069 576.155 964.72 576.428 964.3 576.399ZM964.467 561.014L964.636 561.057L965.171 553.404C962.411 553.461 960.597 554.979 960.463 556.896C960.337 558.704 961.494 560.07 964.467 561.014ZM966.333 563.666L965.95 563.545L965.384 571.65C968.685 571.693 970.406 570.153 970.558 567.987C970.696 566.007 969.66 564.697 966.333 563.666ZM982.562 575.295C981.954 575.253 981.565 574.771 981.61 574.117L982.961 554.804L982.914 554.801L977.921 557.663C977.675 557.818 977.452 557.881 977.187 557.862C976.672 557.826 976.354 557.444 976.391 556.914C976.419 556.524 976.576 556.284 977.051 555.989L982.636 552.73C983.291 552.321 983.579 552.232 984.062 552.266C984.764 552.315 985.17 552.782 985.119 553.514L983.668 574.26C983.622 574.915 983.17 575.338 982.562 575.295ZM996.911 576.393C991.798 576.035 989.074 571.318 989.571 564.21C990.065 557.149 993.452 552.828 998.534 553.184C1003.63 553.54 1006.35 558.273 1005.86 565.334C1005.36 572.441 1002.02 576.75 996.911 576.393ZM997.042 574.522C1000.84 574.788 1003.31 571.154 1003.72 565.2C1004.14 559.292 1002.17 555.333 998.402 555.07C994.645 554.807 992.133 558.484 991.723 564.345C991.305 570.315 993.238 574.256 997.042 574.522ZM1015.96 577.724C1010.85 577.367 1008.12 572.65 1008.62 565.542C1009.11 558.481 1012.5 554.16 1017.58 554.515C1022.68 554.872 1025.4 559.605 1024.91 566.666C1024.41 573.773 1021.07 578.082 1015.96 577.724ZM1016.09 575.854C1019.89 576.12 1022.35 572.486 1022.77 566.532C1023.18 560.624 1021.22 556.665 1017.45 556.401C1013.69 556.139 1011.18 559.816 1010.77 565.677C1010.35 571.647 1012.29 575.588 1016.09 575.854Z" fill="#A5C8D8"/>
<path d="M955.681 563.689L1026.17 568.617L1026.06 570.098L955.577 565.169L955.681 563.689Z" fill="#A5C8D8"/>
<path d="M895.047 608.302C893.566 608.198 892.756 607.233 892.864 605.69L894.014 589.246L889.369 588.921C888.091 588.832 887.285 588.039 887.37 586.823C887.455 585.607 888.348 584.934 889.642 585.024L903.654 586.004C904.933 586.093 905.723 586.885 905.638 588.101C905.553 589.316 904.644 589.989 903.382 589.901L898.721 589.575L897.572 606.019C897.464 607.562 896.528 608.405 895.047 608.302ZM908.512 609.275C907.187 609.182 906.293 608.305 906.402 606.746L907.692 588.291C907.795 586.826 908.697 586.012 910.1 586.11C911.503 586.208 912.268 587.139 912.166 588.604L911.693 595.369L911.786 595.375C912.822 593.333 914.728 592.276 917.269 592.454C920.979 592.713 922.931 595.262 922.66 599.127L922.051 607.841C921.942 609.399 920.95 610.144 919.61 610.051C918.285 609.958 917.391 609.081 917.5 607.522L918.041 599.776C918.192 597.625 917.223 596.241 915.15 596.096C912.999 595.946 911.631 597.369 911.477 599.567L910.953 607.064C910.844 608.623 909.852 609.368 908.512 609.275ZM932.482 610.982C927.261 610.617 924.416 607.176 924.794 601.767C925.17 596.39 928.542 593.195 933.483 593.541C938.221 593.872 941.174 597.336 940.857 601.872C940.769 603.135 940.001 603.802 938.739 603.713L929.2 603.046L929.186 603.249C929.012 605.727 930.395 607.453 932.702 607.614C934.37 607.731 935.5 607.246 936.833 605.883C937.351 605.418 937.768 605.274 938.361 605.316C939.343 605.384 940.094 606.064 940.021 607.108C939.996 607.466 939.861 607.833 939.632 608.193C938.381 610.173 935.709 611.208 932.482 610.982ZM929.442 600.259L936.534 600.755C936.593 598.567 935.289 597.05 933.294 596.911C931.299 596.771 929.747 598.135 929.442 600.259ZM958.683 612.83C952.916 612.427 949.488 608.804 949.835 603.847L950.701 591.455C950.81 589.897 951.746 589.054 953.227 589.157C954.708 589.261 955.517 590.226 955.408 591.785L954.575 603.709C954.373 606.592 955.94 608.597 958.964 608.808C961.972 609.019 963.803 607.252 964.005 604.368L964.839 592.444C964.948 590.885 965.884 590.042 967.364 590.146C968.845 590.249 969.655 591.214 969.546 592.773L968.679 605.165C968.333 610.121 964.434 613.232 958.683 612.83ZM973.852 613.844C972.527 613.751 971.633 612.874 971.742 611.315L973.029 592.907C973.138 591.348 974.147 590.589 975.472 590.681C976.812 590.775 977.69 591.667 977.581 593.225L976.294 611.634C976.185 613.192 975.193 613.937 973.852 613.844ZM980.736 609.704L981.366 600.695L980.493 600.634C979.417 600.559 978.777 599.856 978.851 598.796C978.926 597.736 979.657 597.13 980.733 597.205L981.606 597.266L981.735 595.411C981.838 593.946 982.758 593.102 984.177 593.201C985.595 593.3 986.389 594.264 986.287 595.729L986.157 597.584L987.762 597.696C988.838 597.772 989.461 598.489 989.388 599.533C989.315 600.577 988.598 601.201 987.523 601.126L985.917 601.013L985.358 609.009C985.275 610.194 985.646 610.721 986.622 610.868L986.916 610.92C988.03 611.123 988.605 611.633 988.531 612.693C988.437 614.033 987.08 614.628 985.162 614.494L985.007 614.483C981.967 614.27 980.53 612.65 980.736 609.704ZM994.236 596.066C992.864 595.97 991.877 594.852 991.969 593.542C992.061 592.217 993.193 591.263 994.565 591.359C995.936 591.455 996.924 592.557 996.832 593.882C996.74 595.192 995.607 596.162 994.236 596.066ZM992.899 615.176C991.481 615.076 990.686 614.128 990.789 612.647L991.672 600.022C991.776 598.541 992.696 597.697 994.115 597.796C995.517 597.894 996.327 598.859 996.224 600.34L995.341 612.965C995.237 614.446 994.302 615.274 992.899 615.176ZM1000.49 615.706C999.134 615.611 998.272 614.721 998.38 613.178L999.267 600.49C999.374 598.963 1000.33 598.231 1001.63 598.321C1002.92 598.412 1003.77 599.27 1003.66 600.798L1003.59 601.842L1003.68 601.848C1004.53 599.887 1006.41 598.687 1008.69 598.846C1011.1 599.015 1012.7 600.38 1013.11 602.601L1013.2 602.608C1014.1 600.556 1016.18 599.371 1018.63 599.542C1021.9 599.771 1023.94 602.169 1023.71 605.536L1023.05 614.903C1022.95 616.446 1021.95 617.207 1020.6 617.112C1019.26 617.019 1018.4 616.128 1018.5 614.585L1019.08 606.355C1019.21 604.422 1018.32 603.295 1016.56 603.172C1014.83 603.051 1013.6 604.234 1013.47 606.089L1012.91 614.194C1012.8 615.737 1011.9 616.504 1010.54 616.409C1009.2 616.316 1008.42 615.431 1008.53 613.888L1009.11 605.517C1009.24 603.725 1008.3 602.594 1006.62 602.476C1004.89 602.355 1003.62 603.583 1003.49 605.453L1002.93 613.496C1002.82 615.039 1001.83 615.8 1000.49 615.706ZM1030.72 617.757C1027.54 617.535 1025.27 615.309 1025.48 612.3C1025.69 609.261 1028.15 607.663 1032.34 607.706L1036.57 607.751L1036.65 606.644C1036.76 605.085 1035.73 604.105 1034.01 603.985C1032.63 603.888 1031.75 604.281 1030.65 605.52C1030.11 606.046 1029.51 606.286 1028.78 606.235C1027.68 606.158 1026.93 605.385 1027 604.356C1027.03 603.998 1027.13 603.676 1027.31 603.344C1028.23 601.403 1030.99 600.359 1034.45 600.601C1038.74 600.901 1041.38 603.309 1041.14 606.676L1040.48 616.2C1040.37 617.712 1039.4 618.427 1038.1 618.336C1036.87 618.25 1036.06 617.504 1036.06 616.157L1036.12 615.3L1036.03 615.294C1034.97 617.005 1032.81 617.903 1030.72 617.757ZM1032.44 614.573C1034.44 614.713 1036.17 613.533 1036.29 611.725L1036.38 610.51L1032.84 610.481C1031.13 610.487 1030.11 611.184 1030.03 612.368C1029.94 613.615 1030.92 614.466 1032.44 614.573ZM1044.8 614.184L1045.43 605.175L1044.56 605.114C1043.48 605.039 1042.84 604.336 1042.91 603.276C1042.99 602.216 1043.72 601.609 1044.8 601.685L1045.67 601.746L1045.8 599.891C1045.9 598.426 1046.82 597.582 1048.24 597.681C1049.66 597.78 1050.45 598.744 1050.35 600.209L1050.22 602.064L1051.82 602.176C1052.9 602.251 1053.52 602.968 1053.45 604.013C1053.38 605.057 1052.66 605.68 1051.58 605.605L1049.98 605.493L1049.42 613.489C1049.34 614.674 1049.71 615.201 1050.68 615.347L1050.98 615.399C1052.09 615.602 1052.67 616.113 1052.59 617.173C1052.5 618.513 1051.14 619.107 1049.22 618.973L1049.07 618.962C1046.03 618.75 1044.59 617.13 1044.8 614.184ZM1062.04 620.042C1056.82 619.677 1053.97 616.235 1054.35 610.827C1054.73 605.449 1058.1 602.255 1063.04 602.6C1067.78 602.932 1070.73 606.396 1070.42 610.932C1070.33 612.194 1069.56 612.861 1068.3 612.773L1058.76 612.106L1058.74 612.309C1058.57 614.787 1059.95 616.513 1062.26 616.674C1063.93 616.79 1065.06 616.306 1066.39 614.942C1066.91 614.477 1067.33 614.334 1067.92 614.375C1068.9 614.444 1069.65 615.123 1069.58 616.167C1069.55 616.526 1069.42 616.892 1069.19 617.252C1067.94 619.232 1065.27 620.267 1062.04 620.042ZM1059 609.319L1066.09 609.815C1066.15 607.626 1064.85 606.11 1062.85 605.97C1060.86 605.831 1059.31 607.195 1059 609.319ZM1088.94 621.939C1082.22 621.469 1078.42 616.801 1078.93 609.491C1079.43 602.29 1083.85 598.213 1090.46 598.675C1094.78 598.977 1098.02 601.24 1099.09 604.087C1099.31 604.651 1099.36 605.109 1099.33 605.561C1099.25 606.761 1098.36 607.529 1097.13 607.443C1096.13 607.373 1095.46 606.903 1094.95 605.912C1093.98 603.824 1092.42 602.728 1090.2 602.573C1086.49 602.314 1084.07 604.979 1083.73 609.764C1083.39 614.643 1085.55 617.786 1089.29 618.047C1092.36 618.262 1094.63 616.525 1094.92 613.742L1094.96 613.384L1091.69 613.155C1090.56 613.077 1089.85 612.384 1089.92 611.309C1090 610.233 1090.79 609.647 1091.93 609.726L1097.43 610.111C1098.91 610.215 1099.72 611.18 1099.61 612.723L1099.59 613.066C1099.19 618.786 1095.29 622.382 1088.94 621.939ZM1107.59 623.18C1103.97 622.927 1101.74 620.405 1102.01 616.509L1102.62 607.78C1102.73 606.221 1103.74 605.462 1105.06 605.554C1106.4 605.648 1107.28 606.54 1107.17 608.098L1106.63 615.876C1106.47 618.105 1107.5 619.367 1109.51 619.508C1111.53 619.649 1112.9 618.288 1113.05 616.075L1113.58 608.546C1113.69 606.988 1114.7 606.228 1116.02 606.321C1117.36 606.414 1118.24 607.306 1118.13 608.864L1117.24 621.552C1117.14 623.064 1116.19 623.797 1114.88 623.705C1113.57 623.614 1112.74 622.757 1112.85 621.245L1112.92 620.216L1112.82 620.21C1111.85 622.256 1110.11 623.356 1107.59 623.18ZM1123.73 605.121C1122.36 605.025 1121.37 603.907 1121.46 602.598C1121.56 601.273 1122.69 600.318 1124.06 600.414C1125.43 600.51 1126.42 601.613 1126.33 602.938C1126.24 604.247 1125.1 605.217 1123.73 605.121ZM1122.4 624.231C1120.98 624.132 1120.18 623.183 1120.29 621.702L1121.17 609.077C1121.27 607.596 1122.19 606.752 1123.61 606.851C1125.01 606.949 1125.82 607.915 1125.72 609.395L1124.84 622.021C1124.73 623.501 1123.8 624.329 1122.4 624.231ZM1133.92 624.974C1129.74 624.682 1127.34 621.193 1127.71 615.847C1128.08 610.547 1130.96 607.444 1135.16 607.737C1137.57 607.906 1139.35 609.315 1140.03 611.226L1140.13 611.233L1140.59 604.624C1140.7 603.065 1141.71 602.306 1143.03 602.398C1144.37 602.492 1145.25 603.384 1145.14 604.942L1143.85 623.413C1143.74 624.925 1142.75 625.654 1141.43 625.562C1140.12 625.47 1139.19 624.622 1139.3 623.095L1139.36 622.128L1139.29 622.123C1138.42 623.942 1136.49 625.154 1133.92 624.974ZM1135.72 621.419C1137.98 621.577 1139.56 619.777 1139.77 616.722C1139.99 613.682 1138.67 611.648 1136.41 611.49C1134.12 611.33 1132.58 613.149 1132.37 616.204C1132.16 619.275 1133.43 621.259 1135.72 621.419ZM1154.41 626.501C1149.19 626.136 1146.34 622.694 1146.72 617.286C1147.1 611.908 1150.47 608.714 1155.41 609.059C1160.15 609.391 1163.1 612.855 1162.78 617.391C1162.7 618.653 1161.93 619.32 1160.67 619.232L1151.13 618.565L1151.11 618.768C1150.94 621.246 1152.32 622.972 1154.63 623.133C1156.3 623.249 1157.43 622.765 1158.76 621.401C1159.28 620.936 1159.7 620.793 1160.29 620.834C1161.27 620.903 1162.02 621.582 1161.95 622.627C1161.92 622.985 1161.79 623.351 1161.56 623.711C1160.31 625.691 1157.64 626.726 1154.41 626.501ZM1151.37 615.778L1158.46 616.274C1158.52 614.085 1157.22 612.569 1155.22 612.429C1153.23 612.29 1151.67 613.654 1151.37 615.778ZM1172.33 623.102L1172.96 614.093L1172.09 614.032C1171.01 613.956 1170.37 613.254 1170.45 612.194C1170.52 611.134 1171.25 610.527 1172.33 610.603L1173.2 610.664L1173.33 608.809C1173.43 607.344 1174.35 606.499 1175.77 606.599C1177.19 606.698 1177.98 607.662 1177.88 609.127L1177.75 610.982L1179.36 611.094C1180.43 611.169 1181.06 611.886 1180.98 612.931C1180.91 613.975 1180.19 614.598 1179.12 614.523L1177.51 614.411L1176.95 622.407C1176.87 623.592 1177.24 624.119 1178.22 624.265L1178.51 624.317C1179.62 624.52 1180.2 625.031 1180.13 626.09C1180.03 627.431 1178.67 628.025 1176.76 627.891L1176.6 627.88C1173.56 627.668 1172.12 626.048 1172.33 623.102ZM1189.56 628.959C1184.51 628.605 1181.51 625.138 1181.89 619.651C1182.27 614.242 1185.77 611.182 1190.78 611.532C1195.78 611.882 1198.82 615.384 1198.44 620.809C1198.06 626.311 1194.61 629.312 1189.56 628.959ZM1189.8 625.483C1192.03 625.639 1193.58 623.852 1193.81 620.5C1194.05 617.18 1192.75 615.163 1190.53 615.008C1188.32 614.853 1186.74 616.669 1186.5 619.989C1186.27 623.34 1187.56 625.326 1189.8 625.483ZM1209.17 630.267C1207.75 630.168 1206.97 629.252 1207.07 627.756L1208.36 609.363C1208.47 607.867 1209.4 607.07 1210.89 607.175C1211.86 607.243 1212.49 607.678 1213.14 608.71L1221.91 622.982L1222.04 622.991L1222.92 610.397C1223.02 608.885 1223.93 608.086 1225.34 608.185C1226.76 608.285 1227.53 609.2 1227.42 610.712L1226.13 629.151C1226.03 630.616 1225.15 631.385 1223.67 631.281C1222.65 631.21 1222.05 630.808 1221.41 629.76L1212.61 615.408L1212.47 615.398L1211.58 628.071C1211.47 629.567 1210.57 630.365 1209.17 630.267ZM1235.28 632.109C1231.66 631.856 1229.43 629.334 1229.7 625.437L1230.31 616.709C1230.42 615.15 1231.43 614.39 1232.75 614.483C1234.09 614.577 1234.97 615.468 1234.86 617.027L1234.32 624.805C1234.16 627.034 1235.18 628.296 1237.19 628.436C1239.22 628.578 1240.58 627.217 1240.74 625.004L1241.27 617.475C1241.37 615.916 1242.38 615.157 1243.71 615.249C1245.05 615.343 1245.93 616.235 1245.82 617.793L1244.93 630.481C1244.82 631.993 1243.88 632.726 1242.57 632.634C1241.26 632.543 1240.43 631.686 1240.53 630.174L1240.61 629.145L1240.51 629.138C1239.54 631.185 1237.8 632.285 1235.28 632.109ZM1249.27 628.482L1249.9 619.473L1249.02 619.412C1247.95 619.336 1247.31 618.634 1247.38 617.574C1247.46 616.514 1248.19 615.907 1249.26 615.982L1250.14 616.044L1250.27 614.189C1250.37 612.724 1251.29 611.879 1252.71 611.979C1254.13 612.078 1254.92 613.042 1254.82 614.507L1254.69 616.362L1256.29 616.474C1257.37 616.549 1257.99 617.266 1257.92 618.311C1257.85 619.355 1257.13 619.978 1256.05 619.903L1254.45 619.791L1253.89 627.787C1253.81 628.972 1254.18 629.499 1255.15 629.645L1255.45 629.697C1256.56 629.9 1257.14 630.411 1257.06 631.47C1256.97 632.811 1255.61 633.405 1253.69 633.271L1253.54 633.26C1250.5 633.048 1249.06 631.428 1249.27 628.482ZM1261.35 633.948C1259.98 633.852 1259.14 632.931 1259.24 631.419L1260.13 618.7C1260.23 617.251 1261.18 616.471 1262.49 616.563C1263.77 616.652 1264.58 617.555 1264.48 619.004L1264.41 620.096L1264.5 620.102C1265.08 618.06 1266.54 616.924 1268.21 617.041C1268.81 617.083 1269.29 617.257 1269.59 617.561C1270.01 617.934 1270.19 618.511 1270.13 619.29C1270.08 620.007 1269.82 620.537 1269.36 620.881C1268.9 621.224 1268.23 621.381 1267.34 621.335C1265.27 621.221 1264.45 622.339 1264.31 624.318L1263.79 631.738C1263.69 633.249 1262.74 634.045 1261.35 633.948ZM1274.4 615.657C1273.02 615.561 1272.04 614.442 1272.13 613.133C1272.22 611.808 1273.35 610.853 1274.72 610.949C1276.1 611.045 1277.08 612.148 1276.99 613.473C1276.9 614.782 1275.77 615.753 1274.4 615.657ZM1273.06 634.766C1271.64 634.667 1270.85 633.719 1270.95 632.238L1271.83 619.612C1271.94 618.132 1272.86 617.288 1274.27 617.387C1275.68 617.485 1276.49 618.45 1276.38 619.931L1275.5 632.556C1275.4 634.037 1274.46 634.864 1273.06 634.766ZM1279.91 630.625L1280.54 621.615L1279.67 621.554C1278.59 621.479 1277.95 620.777 1278.03 619.717C1278.1 618.657 1278.83 618.05 1279.91 618.125L1280.78 618.186L1280.91 616.332C1281.01 614.866 1281.93 614.022 1283.35 614.121C1284.77 614.221 1285.56 615.185 1285.46 616.65L1285.33 618.505L1286.94 618.617C1288.01 618.692 1288.64 619.409 1288.56 620.454C1288.49 621.498 1287.77 622.121 1286.7 622.046L1285.09 621.934L1284.53 629.93C1284.45 631.114 1284.82 631.642 1285.8 631.788L1286.09 631.84C1287.21 632.043 1287.78 632.553 1287.71 633.613C1287.61 634.954 1286.26 635.548 1284.34 635.414L1284.18 635.403C1281.14 635.19 1279.71 633.571 1279.91 630.625ZM1293.41 616.986C1292.04 616.89 1291.05 615.772 1291.14 614.463C1291.24 613.138 1292.37 612.183 1293.74 612.279C1295.11 612.375 1296.1 613.478 1296.01 614.803C1295.92 616.112 1294.78 617.082 1293.41 616.986ZM1292.08 636.096C1290.66 635.997 1289.86 635.048 1289.97 633.568L1290.85 620.942C1290.95 619.461 1291.87 618.617 1293.29 618.716C1294.69 618.815 1295.5 619.78 1295.4 621.26L1294.52 633.886C1294.41 635.367 1293.48 636.194 1292.08 636.096ZM1305.06 637.035C1300.01 636.682 1297.01 633.214 1297.39 627.728C1297.77 622.319 1301.27 619.259 1306.28 619.609C1311.28 619.959 1314.32 623.461 1313.94 628.885C1313.56 634.387 1310.11 637.388 1305.06 637.035ZM1305.3 633.559C1307.53 633.715 1309.08 631.928 1309.31 628.577C1309.55 625.257 1308.25 623.239 1306.03 623.085C1303.82 622.93 1302.24 624.746 1302 628.066C1301.77 631.417 1303.06 633.402 1305.3 633.559ZM1317.96 637.906C1316.64 637.814 1315.75 636.937 1315.85 635.378L1316.74 622.659C1316.84 621.241 1317.73 620.426 1319.1 620.521C1320.47 620.617 1321.32 621.553 1321.22 622.987L1321.15 623.923L1321.24 623.929C1322.28 621.918 1324.04 620.898 1326.61 621.078C1330.32 621.337 1332.25 623.821 1331.97 627.734L1331.36 636.462C1331.25 638.021 1330.25 638.765 1328.92 638.673C1327.58 638.579 1326.7 637.703 1326.81 636.144L1327.36 628.366C1327.51 626.184 1326.57 624.865 1324.53 624.722C1322.48 624.58 1321.09 625.986 1320.93 628.152L1320.41 635.696C1320.3 637.255 1319.31 638 1317.96 637.906Z" fill="#10242F"/>
<rect x="883.234" y="639.256" width="161" height="36" rx="8" transform="rotate(4 883.234 639.256)" fill="#E1EDF2"/>
<path d="M902.262 664.806C901.466 664.75 901.057 664.334 900.869 663.411L898.986 654.08C898.924 653.764 898.894 653.459 898.91 653.233C898.959 652.529 899.468 652.126 900.239 652.18C900.901 652.226 901.278 652.623 901.378 653.355L902.641 661.319L902.708 661.324L905.29 653.671C905.538 652.896 905.964 652.58 906.669 652.63C907.356 652.678 907.749 653.076 907.882 653.835L909.372 661.79L909.439 661.795L911.798 654.083C912.008 653.365 912.436 653.033 913.098 653.079C913.869 653.133 914.317 653.603 914.268 654.307C914.252 654.525 914.181 654.823 914.075 655.136L910.902 664.129C910.588 665 910.125 665.356 909.346 665.301C908.533 665.244 908.115 664.836 907.935 663.913L906.422 656.631L906.347 656.625L903.844 663.627C903.539 664.499 903.059 664.861 902.262 664.806ZM916.362 665.792C915.566 665.736 915.13 665.217 915.188 664.387L915.872 654.604C915.931 653.766 916.435 653.313 917.231 653.368C918.027 653.424 918.463 653.943 918.404 654.781L917.72 664.564C917.662 665.394 917.159 665.847 916.362 665.792ZM920.855 666.106C920.093 666.052 919.672 665.56 919.728 664.755L920.42 654.863C920.476 654.059 920.978 653.63 921.783 653.687C922.303 653.723 922.64 653.957 922.989 654.512L927.708 662.188L927.775 662.192L928.249 655.419C928.306 654.606 928.791 654.177 929.554 654.23C930.317 654.283 930.729 654.775 930.672 655.589L929.978 665.505C929.923 666.293 929.448 666.707 928.651 666.651C928.107 666.613 927.785 666.397 927.437 665.833L922.703 658.114L922.628 658.109L922.151 664.924C922.095 665.729 921.61 666.159 920.855 666.106ZM936.07 667.17C935.274 667.114 934.838 666.595 934.896 665.765L935.515 656.921L933.017 656.747C932.329 656.699 931.896 656.272 931.942 655.618C931.987 654.965 932.468 654.602 933.163 654.651L940.699 655.178C941.387 655.226 941.812 655.652 941.766 656.305C941.721 656.959 941.232 657.321 940.553 657.274L938.046 657.098L937.428 665.942C937.37 666.772 936.867 667.225 936.07 667.17ZM943.517 667.53C942.721 667.475 942.285 666.956 942.344 666.117L943.005 656.662C943.063 655.832 943.566 655.378 944.363 655.434L950.113 655.836C950.809 655.885 951.234 656.31 951.189 656.964C951.143 657.618 950.654 657.98 949.967 657.932L945.482 657.618L945.279 660.527L949.546 660.825C950.174 660.869 950.576 661.268 950.534 661.872C950.492 662.475 950.047 662.815 949.41 662.77L945.143 662.472L944.929 665.523L949.414 665.837C950.101 665.885 950.535 666.311 950.489 666.965C950.444 667.619 949.963 667.981 949.268 667.933L943.517 667.53ZM953.346 668.395C952.558 668.34 952.114 667.82 952.172 666.99L952.846 657.35C952.904 656.52 953.408 656.066 954.204 656.122L957.893 656.38C960.676 656.575 962.166 658.153 961.999 660.542C961.893 662.051 961.057 663.29 959.684 663.767L961.217 666.906C961.401 667.282 961.445 667.504 961.424 667.797C961.377 668.468 960.807 668.916 960.069 668.865C959.466 668.823 959.204 668.585 958.845 667.819L957.088 664.032L954.934 663.881L954.704 667.167C954.646 667.997 954.142 668.45 953.346 668.395ZM955.062 662.045L957.242 662.198C958.516 662.287 959.313 661.61 959.397 660.411C959.479 659.237 958.744 658.428 957.486 658.34L955.332 658.189L955.062 662.045ZM964.114 668.971C963.317 668.915 962.954 668.443 962.999 667.806C963.032 667.328 963.239 667.023 963.783 666.589L967.629 663.396C969.221 662.066 969.648 661.507 969.709 660.635C969.778 659.637 969.057 658.871 967.976 658.795C967.003 658.727 966.299 659.167 965.795 660.108C965.474 660.591 965.165 660.806 964.62 660.768C963.941 660.72 963.567 660.29 963.61 659.661C963.624 659.468 963.67 659.294 963.741 659.122C964.245 657.81 965.85 656.667 968.138 656.827C970.704 657.006 972.33 658.569 972.184 660.648C972.081 662.123 971.296 662.995 969.187 664.726L966.395 667.058L966.392 667.108L970.952 667.427C971.606 667.473 971.972 667.894 971.93 668.506C971.888 669.102 971.465 669.485 970.811 669.439L964.114 668.971ZM980.037 670.261C979.341 670.212 978.868 669.75 978.924 668.945L979.006 667.78L974.496 667.464C973.582 667.4 973.01 666.788 973.069 665.941C973.106 665.421 973.289 664.962 973.713 664.327C974.647 662.892 975.983 661.133 977.436 659.271C978.364 658.047 979.005 657.671 980.028 657.743C981.31 657.832 982.067 658.584 981.987 659.716L981.553 665.928L982.24 665.976C982.911 666.023 983.251 666.468 983.209 667.063C983.167 667.658 982.761 668.042 982.099 667.996L981.412 667.948L981.33 669.113C981.274 669.918 980.733 670.31 980.037 670.261ZM979.193 665.83L979.618 659.744L979.568 659.741C977.667 662.11 976.433 663.733 975.325 665.492L975.32 665.559L979.193 665.83Z" fill="#748E99"/>
<path d="M993.958 671.058C993.514 671.027 993.246 670.764 993.272 670.386C993.294 670.076 993.37 669.947 993.757 669.595L997.913 665.825C999.658 664.237 1000.09 663.618 1000.16 662.604C1000.25 661.372 999.362 660.4 998.062 660.309C996.755 660.218 995.793 660.833 995.292 662.104C995.169 662.407 994.987 662.613 994.576 662.584C994.132 662.553 993.899 662.259 993.927 661.865C993.935 661.756 993.949 661.664 993.973 661.565C994.236 660.337 995.681 658.82 998.154 658.993C1000.33 659.146 1001.81 660.664 1001.67 662.617C1001.58 663.942 1000.91 664.897 998.69 666.873L995.437 669.78L995.435 669.813L1000.72 670.182C1001.14 670.212 1001.41 670.5 1001.38 670.903C1001.35 671.305 1001.05 671.554 1000.62 671.524L993.958 671.058ZM1007.14 672.181C1005.37 672.058 1003.94 671.073 1003.46 669.667C1003.37 669.4 1003.32 669.16 1003.34 668.85C1003.37 668.422 1003.67 668.165 1004.1 668.195C1004.47 668.221 1004.66 668.403 1004.76 668.839C1005.05 670.039 1005.95 670.767 1007.26 670.859C1008.89 670.973 1010.11 669.904 1010.23 668.261C1010.34 666.669 1009.26 665.456 1007.64 665.343C1006.81 665.285 1006.02 665.541 1005.48 666.042C1004.9 666.575 1004.77 666.642 1004.39 666.615C1003.92 666.582 1003.69 666.22 1003.72 665.785C1003.72 665.718 1003.73 665.667 1003.74 665.592L1004.5 660.827C1004.64 659.986 1005.06 659.678 1005.94 659.74L1011 660.094C1011.43 660.124 1011.69 660.412 1011.67 660.814C1011.64 661.217 1011.33 661.465 1010.91 661.435L1005.84 661.081L1005.18 665.027L1005.21 665.03C1005.81 664.33 1006.84 663.981 1008.02 664.063C1010.36 664.227 1011.9 665.994 1011.74 668.325C1011.57 670.764 1009.67 672.359 1007.14 672.181ZM1014.81 672.668C1014.49 672.645 1014.26 672.426 1014.28 672.125C1014.29 671.974 1014.34 671.851 1014.44 671.732L1018.76 666.382L1022.97 661.142C1023.19 660.862 1023.34 660.805 1023.58 660.822C1023.86 660.841 1024.1 661.069 1024.08 661.354C1024.07 661.505 1024.03 661.62 1023.92 661.739L1019.73 666.954L1015.39 672.354C1015.19 672.61 1015.05 672.684 1014.81 672.668ZM1015.38 666.423C1013.9 666.32 1013.09 665.084 1013.23 663.189C1013.36 661.303 1014.34 660.201 1015.8 660.303C1017.27 660.406 1018.09 661.625 1017.95 663.52C1017.82 665.406 1016.85 666.526 1015.38 666.423ZM1015.44 665.475C1016.19 665.528 1016.67 664.795 1016.76 663.437C1016.86 662.087 1016.47 661.302 1015.74 661.251C1015 661.199 1014.51 661.931 1014.42 663.273C1014.32 664.631 1014.7 665.423 1015.44 665.475ZM1022.55 673.183C1021.08 673.08 1020.27 671.845 1020.4 669.95C1020.53 668.064 1021.51 666.961 1022.98 667.064C1024.45 667.167 1025.26 668.386 1025.13 670.281C1025 672.167 1024.03 673.287 1022.55 673.183ZM1022.62 672.236C1023.36 672.288 1023.84 671.555 1023.94 670.197C1024.03 668.848 1023.65 668.063 1022.91 668.011C1022.18 667.96 1021.69 668.692 1021.59 670.033C1021.5 671.391 1021.87 672.184 1022.62 672.236Z" fill="#748E99"/>
<g clip-path="url(#clip2_2083_808)">
<path d="M28.0932 187.691C37.5197 182.997 42.233 180.65 47.2957 182.765C52.3584 184.88 54.1774 190.417 57.8153 201.491L72.6091 246.523C76.1401 257.272 77.9057 262.646 75.6635 267.082C73.4213 271.518 68.047 273.284 57.2985 276.815L12.2663 291.609C1.19212 295.247 -4.34494 297.066 -9.05074 294.242C-13.7565 291.418 -14.6599 286.232 -16.4666 275.86C-20.0746 255.147 -18.1641 237.532 -10.7353 223.016C-3.42771 208.717 9.51509 196.942 28.0932 187.691Z" fill="#10242F"/>
</g>
<g clip-path="url(#clip3_2083_808)">
<path d="M193.383 876.036C192.079 882.671 191.427 885.989 189.313 888.411C187.198 890.834 183.999 891.928 177.601 894.117L153.675 902.302C147.277 904.491 144.077 905.585 140.922 904.965C137.767 904.345 135.22 902.122 130.125 897.675L111.074 881.047C105.979 876.6 103.432 874.377 102.391 871.335C101.35 868.292 102.002 864.975 103.306 858.339L108.18 833.526C109.484 826.891 110.136 823.573 112.25 821.15C114.364 818.728 117.564 817.634 123.962 815.445L147.888 807.26C154.286 805.071 157.486 803.977 160.641 804.597C163.796 805.216 166.343 807.44 171.438 811.887L190.489 828.515C195.584 832.961 198.131 835.185 199.172 838.227C200.213 841.269 199.561 844.587 198.257 851.223L193.383 876.036Z" fill="#E1EDF2"/>
</g>
<g clip-path="url(#clip4_2083_808)">
<path d="M1730.38 435.036C1729.08 441.671 1728.43 444.989 1726.31 447.411C1724.2 449.834 1721 450.928 1714.6 453.117L1690.67 461.302C1684.28 463.491 1681.08 464.585 1677.92 463.965C1674.77 463.345 1672.22 461.122 1667.13 456.675L1648.07 440.047C1642.98 435.6 1640.43 433.377 1639.39 430.335C1638.35 427.292 1639 423.975 1640.31 417.339L1645.18 392.526C1646.48 385.891 1647.14 382.573 1649.25 380.15C1651.36 377.728 1654.56 376.634 1660.96 374.445L1684.89 366.26C1691.29 364.071 1694.49 362.977 1697.64 363.597C1700.8 364.216 1703.34 366.44 1708.44 370.887L1727.49 387.515C1732.58 391.961 1735.13 394.185 1736.17 397.227C1737.21 400.269 1736.56 403.587 1735.26 410.223L1730.38 435.036Z" fill="#10242F"/>
</g>
<g clip-path="url(#clip5_2083_808)">
<path d="M1558.01 41.4799C1540.73 36.1107 1532.09 33.4261 1530.51 26.7651C1528.94 20.1042 1535.45 13.828 1548.48 1.27559L1574.95 -24.218C1588.83 -37.5903 1595.77 -44.2764 1602.55 -42.1709C1609.32 -40.0655 1611.25 -30.6228 1615.11 -11.7374L1622.47 24.2666C1626.09 41.994 1627.9 50.8578 1622.83 55.4509C1617.75 60.0441 1609.11 57.3595 1591.83 51.9903L1558.01 41.4799Z" fill="#748E99"/>
</g>
<g clip-path="url(#clip6_2083_808)">
<path d="M198.822 580.41C183.204 589.428 175.395 593.936 168.314 591.273C161.233 588.61 158.33 580.073 152.525 562.998L130.056 496.91C126.008 485.003 123.983 479.049 126 473.689C128.016 468.328 133.461 465.184 144.353 458.896L177.219 439.921C188.11 433.633 193.556 430.489 199.206 431.423C204.856 432.357 209 437.087 217.288 446.546L263.287 499.05C275.172 512.614 281.114 519.397 279.88 526.861C278.646 534.324 270.836 538.833 255.218 547.85L198.822 580.41Z" fill="white"/>
</g>
<path fill-rule="evenodd" clip-rule="evenodd" d="M160.859 497.401C159.87 497.972 159.531 499.237 160.102 500.226C160.674 501.215 161.938 501.554 162.928 500.983L165.598 499.441L171.324 505.063C171.356 505.096 171.389 505.128 171.422 505.159L187.281 520.729C188.184 521.616 189.353 522.183 190.609 522.343C191.864 522.503 193.138 522.247 194.234 521.615L194.235 521.614L214.16 510.11L214.161 510.11C215.257 509.477 216.116 508.502 216.606 507.334C217.096 506.167 217.19 504.87 216.874 503.644L216.873 503.643L211.29 482.063C211.128 481.437 210.683 480.923 210.087 480.674C209.491 480.424 208.813 480.467 208.253 480.79L173.149 501.058L167.374 495.388C166.712 494.738 165.696 494.609 164.891 495.073L160.859 497.401ZM201.515 526.849C202.801 529.076 202.038 531.923 199.811 533.209C197.585 534.494 194.737 533.731 193.452 531.505C192.166 529.278 192.929 526.431 195.156 525.145C197.383 523.859 200.23 524.622 201.515 526.849ZM220.776 521.107C223.003 519.821 223.766 516.974 222.48 514.747C221.195 512.52 218.347 511.758 216.121 513.043C213.894 514.329 213.131 517.176 214.417 519.403C215.702 521.63 218.55 522.393 220.776 521.107Z" fill="#10242F"/>
<g clip-path="url(#clip7_2083_808)">
<path d="M1537.54 311.905C1521.38 314.91 1513.3 316.412 1506.37 315.494C1492.44 313.652 1480.23 305.269 1473.5 292.933C1470.16 286.792 1468.65 278.711 1465.65 262.549C1462.64 246.385 1461.14 238.302 1462.06 231.368C1463.9 217.439 1472.28 205.23 1484.62 198.505C1490.76 195.157 1498.84 193.655 1515.01 190.65C1531.17 187.646 1539.25 186.143 1546.19 187.061C1560.12 188.903 1572.33 197.286 1579.05 209.622C1582.4 215.763 1583.9 223.844 1586.9 240.006C1589.91 256.172 1591.41 264.254 1590.49 271.189C1588.65 285.116 1580.27 297.325 1567.93 304.049C1561.79 307.398 1553.71 308.9 1537.54 311.905Z" fill="#E1EDF2"/>
</g>
<path d="M1496.56 250.098L1529.34 244.006" stroke="#10242F" stroke-width="6" stroke-linecap="round" stroke-linejoin="round"/>
<path d="M1498.97 263.057L1526.28 257.981" stroke="#10242F" stroke-width="6" stroke-linecap="round" stroke-linejoin="round"/>
<path d="M1551.12 270.01C1548.14 273.67 1544.13 276.45 1539.57 278.015C1535.01 279.579 1530.1 279.862 1525.43 278.829C1520.75 277.795 1516.52 275.49 1513.24 272.191C1509.95 268.892 1507.76 264.74 1506.93 260.237L1505 249.87C1504.16 245.366 1504.71 240.704 1506.59 236.446C1508.47 232.187 1511.59 228.514 1515.58 225.871C1519.57 223.227 1524.26 221.726 1529.08 221.548C1533.89 221.369 1538.64 222.522 1542.73 224.867" stroke="#10242F" stroke-width="6" stroke-linecap="round" stroke-linejoin="round"/>
<g clip-path="url(#clip8_2083_808)">
<path d="M1544.35 731.474C1526.39 733.058 1517.4 733.85 1512.11 728.447C1506.81 723.045 1507.79 714.08 1509.73 696.151L1517.25 626.753C1518.6 614.25 1519.28 607.998 1523.37 603.989C1527.46 599.981 1533.72 599.428 1546.25 598.324L1584.06 594.991C1596.58 593.887 1602.85 593.335 1607.58 596.566C1612.3 599.798 1614.06 605.834 1617.59 617.907L1637.13 684.919C1642.18 702.232 1644.71 710.889 1640.44 717.134C1636.17 723.38 1627.19 724.172 1609.22 725.756L1544.35 731.474Z" fill="#748E99"/>
</g>
<path fill-rule="evenodd" clip-rule="evenodd" d="M1571.3 633.862C1571.15 632.211 1569.7 630.991 1568.05 631.137C1566.4 631.282 1565.18 632.738 1565.32 634.389L1565.65 638.07L1564.19 638.198C1560.45 638.528 1556.99 640.33 1554.58 643.209C1552.17 646.088 1551 649.807 1551.33 653.548C1551.66 657.289 1553.46 660.746 1556.34 663.158C1559.22 665.57 1562.94 666.74 1566.68 666.41L1568.13 666.282L1569.57 682.54L1565.89 682.864C1563.73 683.054 1561.59 682.38 1559.93 680.99C1558.27 679.6 1557.23 677.608 1557.04 675.452C1556.9 673.801 1555.44 672.581 1553.79 672.727C1552.14 672.872 1550.92 674.328 1551.07 675.979C1551.39 679.72 1553.2 683.177 1556.08 685.589C1558.95 688.001 1562.67 689.171 1566.41 688.841L1570.1 688.517L1570.42 692.2C1570.57 693.85 1572.02 695.07 1573.67 694.925C1575.32 694.779 1576.54 693.324 1576.4 691.673L1576.07 687.99L1579.76 687.665C1583.5 687.335 1586.95 685.533 1589.37 682.654C1591.78 679.776 1592.95 676.057 1592.62 672.316C1592.29 668.574 1590.49 665.118 1587.61 662.705C1584.73 660.293 1581.01 659.123 1577.27 659.453L1573.58 659.778L1572.15 643.52L1573.61 643.391C1574.68 643.297 1575.75 643.414 1576.78 643.735C1577.8 644.057 1578.75 644.577 1579.57 645.265C1580.39 645.953 1581.07 646.797 1581.56 647.747C1582.06 648.697 1582.36 649.736 1582.46 650.803C1582.6 652.454 1584.06 653.674 1585.71 653.528C1587.36 653.383 1588.58 651.927 1588.43 650.276C1588.27 648.424 1587.74 646.622 1586.88 644.973C1586.03 643.324 1584.85 641.861 1583.42 640.666C1582 639.472 1580.35 638.57 1578.58 638.012C1576.8 637.454 1574.94 637.251 1573.08 637.414L1571.62 637.543L1571.3 633.862ZM1566.17 644.047L1564.72 644.175C1562.56 644.365 1560.57 645.404 1559.18 647.063C1557.79 648.722 1557.12 650.865 1557.31 653.021C1557.5 655.177 1558.53 657.169 1560.19 658.559C1561.85 659.949 1564 660.623 1566.15 660.433L1567.61 660.305L1566.17 644.047ZM1574.11 665.755L1575.55 682.013L1579.23 681.688C1581.38 681.498 1583.38 680.459 1584.77 678.801C1586.16 677.142 1586.83 674.998 1586.64 672.842C1586.45 670.686 1585.41 668.694 1583.75 667.304C1582.09 665.914 1579.95 665.24 1577.8 665.43L1574.11 665.755Z" fill="#10242F"/>
</g>
<defs>
<clipPath id="clip0_2083_808">
<rect width="1712" height="873.044" rx="32" fill="white"/>
</clipPath>
<clipPath id="clip1_2083_808">
<rect width="106" height="106" fill="white" transform="translate(448.789 102.705) rotate(161.814)"/>
</clipPath>
<clipPath id="clip2_2083_808">
<rect width="106" height="106" fill="white" transform="translate(86.7891 272.705) rotate(161.814)"/>
</clipPath>
<clipPath id="clip3_2083_808">
<rect width="106" height="106" fill="white" transform="translate(225.562 849.702) rotate(131.115)"/>
</clipPath>
<clipPath id="clip4_2083_808">
<rect width="106" height="106" fill="white" transform="translate(1762.56 408.702) rotate(131.115)"/>
</clipPath>
<clipPath id="clip5_2083_808">
<rect width="106" height="106" fill="white" transform="translate(1554.45 -66) rotate(17.2622)"/>
</clipPath>
<clipPath id="clip6_2083_808">
<rect width="148" height="148" fill="white" transform="translate(93 480) rotate(-30)"/>
</clipPath>
<clipPath id="clip7_2083_808">
<rect width="148" height="148" fill="white" transform="translate(1440 192.046) rotate(-10.5298)"/>
</clipPath>
<clipPath id="clip8_2083_808">
<rect width="148" height="148" fill="white" transform="translate(1490.79 595.785) rotate(-5.03805)"/>
</clipPath>
</defs>
</svg>
